<svg xmlns="http://www.w3.org/2000/svg" width="351" height="81"><path fill="#4769AF" d="M33.8 36H2.2C1 36 0 35 0 33.8V2.2C0 1 1 0 2.2 0h31.5C35 0 36 1 36 2.2v31.5c0 1.3-1 2.3-2.2 2.3z"/><path fill="#1B6EB2" d="M78.8 36H47.2C46 36 45 35 45 33.8V2.2C45 1 46 0 47.2 0h31.5C80 0 81 1 81 2.2v31.5c0 1.3-1 2.3-2.2 2.3z"/><path fill="#5D80A3" d="M123.888 36H92.206C91.003 36 90 35 90 33.8V2.2C90 1 91.003 0 92.206 0h31.582c1.203 0 2.206 1 2.206 2.2v31.5c.1 1.3-.903 2.3-2.106 2.3z"/><path fill="#ED7222" d="M168.794 36h-31.588c-1.203 0-2.206-1-2.206-2.2V2.2c0-1.2 1.003-2.2 2.206-2.2h31.588C169.997 0 171 1 171 2.2v31.5c0 1.3-1.003 2.3-2.206 2.3z"/><path fill="#1B75AB" d="M213.794 36h-31.588c-1.203 0-2.206-1-2.206-2.2V2.2c0-1.2 1.003-2.2 2.206-2.2h31.588C214.997 0 216 1 216 2.2v31.5c0 1.3-1.003 2.3-2.206 2.3z"/><path fill="#E04927" d="M258.794 36h-31.588c-1.203 0-2.206-1-2.206-2.2V2.2c0-1.2 1.003-2.2 2.206-2.2h31.588C259.997 0 261 1 261 2.2v31.5c0 1.3-1.003 2.3-2.206 2.3z"/><path fill="#FFF" d="M13.1 13.764h2.2v-2.02c0-1.01 0-2.422.6-3.23C16.5 7.504 17.5 7 19.2 7c2.7 0 3.8.303 3.8.303l-.5 3.23s-.8-.302-1.6-.302-1.6.31-1.6 1.12v2.53h3.3l-.2 3.23h-3.2V28h-4V17.096H13v-3.332h.1zm49.854-1.092c1.3 0 2.702.626 3.603 1.564 0-.417.3-.834.7-.834h.1c.6 0 .802.626.802.834v7.402c0 .52.5.73.8.417 1.1-1.147 2.5-6.36-.7-9.28-3.01-2.71-7.01-2.293-9.21-.73-2.3 1.565-3.71 5.318-2.4 8.76 1.5 3.752 6 4.795 8.6 3.752 1.3-.52 2 1.25.5 1.98-2.1.94-7.91.835-10.61-4.065-1.9-3.336-1.8-9.175 3.1-12.094 3.7-2.294 8.7-1.668 11.51 1.46 3.1 3.336 2.9 9.696-.1 12.094-1.3 1.043-3.41 0-3.41-1.564v-.52c-.9.937-2.2 1.46-3.61 1.46-2.7 0-5.21-2.503-5.21-5.422.5-2.712 2.9-5.214 5.5-5.214zm3.603 5.213c-.1-2.085-1.5-3.336-3.403-3.336h-.1c-2.102 0-3.203 1.66-3.203 3.64 0 2.19 1.31 3.54 3.21 3.54 2.1 0 3.41-1.46 3.41-3.34l.1-.52zm174.42-.385c0-1.1 2.624-1.5 2.624-4.3 0-1.6-.1-2.7-1.41-3.3 0-.4 2.32-.1 2.32-.9h-5.15s-5.25.1-5.25 4.4 4.45 3.8 4.45 3.8v1.1c0 .4.61.3.71 1.2-.3 0-6.26-.2-6.26 3.8 0 3.9 5.35 3.7 5.35 3.7s6.06.3 6.06-4.6c0-2.7-3.43-3.6-3.43-4.9zm-4.545-3.7c-.504-1.8.1-3.4 1.414-3.7 1.21-.3 2.727.8 3.13 2.6.504 1.8-.1 3.4-1.414 3.8-1.212.2-2.523-.9-3.13-2.7zm2.625 12.2c-2.12.1-3.837-.9-3.938-2.5-.11-1.5 1.51-2.9 3.63-3s3.83.9 3.94 2.5c.1 1.4-1.42 2.8-3.64 3zM254 12.7v1h-3.534v3.5h-1.01v-3.5h-3.534v-1h3.534V9.2h1.01v3.5H254zm-100.52-2.54c1.326 0 2.4 1.002 2.4 2.24s-1.074 2.243-2.4 2.243c-1.325 0-2.4-1.003-2.4-2.242 0-1.22 1.075-2.24 2.4-2.24zm0 7.667c3.194 0 5.792-2.428 5.792-5.414 0-2.985-2.598-5.413-5.792-5.413s-5.792 2.428-5.792 5.413c0 2.986 2.598 5.414 5.792 5.414m2.36 4.435c1.18-.26 2.32-.694 3.366-1.3.795-.472 1.034-1.45.53-2.18-.504-.745-1.55-.968-2.333-.497-2.372 1.387-5.434 1.387-7.806 0-.796-.47-1.843-.248-2.333.496-.504.75-.265 1.73.53 2.18 1.047.61 2.187 1.06 3.367 1.31l-3.23 3.02c-.67.63-.67 1.63 0 2.24.33.31.77.46 1.21.46s.88-.15 1.21-.46l3.18-2.97 3.18 2.98c.68.63 1.74.63 2.4 0 .68-.63.68-1.62 0-2.24l-3.26-3.02m36.32-10.19c1.28 0 2.16-.91 2.16-2.03S193.54 8 192.16 8s-2.16.814-2.16 2.036c0 1.12.884 2.036 2.162 2.036zm1.87 12.83V13.6h-3.74V25h3.74m1.87-.102h3.64v-6.31c0-.408 0-.612.1-.917.3-.61.89-1.32 1.87-1.32 1.28 0 1.87 1.02 1.87 2.55V25H207v-6.72c0-3.46-1.867-5.19-4.128-5.19-1.966 0-2.85 1.017-3.34 1.933v-1.425h-3.736c.2 1.12.1 11.3.1 11.3zm-82.1-6.65c-.3-.298-.6-.398-1.01-.696-.3-.1-1.21-.298-1.31-.398 1.41-.795 2.22-1.49 2.22-3.578 0-2.484-2.01-3.578-4.43-3.578H102v16h7.054c2.922 0 5.946-1.49 5.946-4.67-.202-1.49-.403-2.185-1.21-3.08zm-7.86-3.975V13.18c1.51 0 3.63-.298 3.63 1.49 0 2.088-1.82 1.79-3.63 1.79v-2.187zm0 8.944v-4.075c2.12 0 4.64-.398 4.64 2.087 0 2.28-2.62 1.98-4.63 1.98zM33.89 81H2.205C1.003 81 0 80 0 78.8V47.2C0 46 1.003 45 2.206 45h31.582c1.203 0 2.206 1 2.206 2.2v31.5c.1 1.3-.903 2.3-2.106 2.3zm45 0H47.21C46 81 45 80 45 78.8V47.2c0-1.2 1.003-2.2 2.206-2.2h31.582c1.203 0 2.206 1 2.206 2.2v31.5c.1 1.3-.903 2.3-2.106 2.3zm45 0H92.21C91 81 90 80 90 78.8V47.2c0-1.2 1.003-2.2 2.206-2.2h31.582c1.203 0 2.206 1 2.206 2.2v31.5c.1 1.3-.903 2.3-2.106 2.3zm44.905 0h-31.588c-1.203 0-2.206-1-2.206-2.2V47.2c0-1.2 1-2.2 2.2-2.2h31.59c1.2 0 2.2 1 2.2 2.2v31.5c0 1.3-1.01 2.3-2.21 2.3zm45 0h-31.588c-1.203 0-2.206-1-2.206-2.2V47.2c0-1.2 1-2.2 2.2-2.2h31.59c1.2 0 2.2 1 2.2 2.2v31.5c0 1.3-1.01 2.3-2.21 2.3zm45 0h-31.588c-1.203 0-2.206-1-2.206-2.2V47.2c0-1.2 1-2.2 2.2-2.2h31.59c1.2 0 2.2 1 2.2 2.2v31.5c0 1.3-1.01 2.3-2.21 2.3z"/><path d="M13.1 58.764h2.2v-2.02c0-1.01 0-2.422.6-3.23.6-1.01 1.6-1.514 3.3-1.514 2.7 0 3.8.303 3.8.303l-.5 3.23s-.8-.302-1.6-.302-1.6.31-1.6 1.12v2.53h3.3l-.2 3.23h-3.2V73h-4V62.096H13v-3.332h.1zm49.854-1.092c1.3 0 2.702.626 3.603 1.564 0-.417.3-.834.7-.834h.1c.602 0 .802.626.802.834v7.402c0 .52.5.73.8.417 1.1-1.147 2.5-6.36-.7-9.28-3.01-2.71-7.01-2.293-9.21-.73-2.3 1.565-3.71 5.318-2.4 8.76 1.5 3.752 6 4.795 8.6 3.752 1.3-.52 2 1.25.5 1.98-2.1.94-7.91.835-10.61-4.065-1.9-3.336-1.8-9.175 3.1-12.094 3.7-2.294 8.7-1.668 11.51 1.46 3.1 3.336 2.9 9.696-.1 12.094-1.31 1.043-3.41 0-3.41-1.564v-.52c-.9.937-2.2 1.46-3.61 1.46-2.71 0-5.21-2.503-5.21-5.422.5-2.712 2.9-5.214 5.5-5.214zm3.603 5.213c-.1-2.085-1.5-3.336-3.403-3.336h-.1c-2.1 0-3.202 1.66-3.202 3.64 0 2.19 1.3 3.54 3.202 3.54 2.1 0 3.403-1.46 3.403-3.34l.1-.52zm174.42-.385c0-1.1 2.624-1.5 2.624-4.3 0-1.6-.1-2.7-1.41-3.3 0-.4 2.32-.1 2.32-.9h-5.15s-5.25.1-5.25 4.4 4.45 3.8 4.45 3.8v1.1c0 .4.61.3.71 1.2-.3 0-6.26-.2-6.26 3.8 0 3.9 5.35 3.7 5.35 3.7s6.06.3 6.06-4.6c0-2.7-3.43-3.6-3.43-4.9zm-4.545-3.7c-.504-1.8.1-3.4 1.414-3.7 1.21-.3 2.727.8 3.13 2.6.504 1.8-.1 3.4-1.414 3.8-1.212.2-2.523-.9-3.13-2.7zm2.625 12.2c-2.12.1-3.837-.9-3.938-2.5-.11-1.5 1.51-2.9 3.63-3 2.12-.1 3.83.9 3.94 2.5.1 1.4-1.42 2.8-3.64 3zM254 57.7v1h-3.534v3.5h-1.01v-3.5h-3.534v-1h3.534v-3.5h1.01v3.5H254zm-100.52-2.54c1.326 0 2.4 1.002 2.4 2.24 0 1.24-1.074 2.243-2.4 2.243-1.325 0-2.4-1.003-2.4-2.242 0-1.22 1.075-2.24 2.4-2.24zm0 7.667c3.194 0 5.792-2.428 5.792-5.414S156.674 52 153.48 52s-5.792 2.428-5.792 5.413c0 2.986 2.598 5.414 5.792 5.414m2.36 4.435c1.18-.26 2.32-.694 3.366-1.3.795-.472 1.034-1.438.53-2.18-.504-.745-1.55-.968-2.333-.497-2.372 1.387-5.434 1.387-7.806 0-.796-.47-1.843-.248-2.333.496-.504.75-.265 1.73.53 2.18 1.047.61 2.187 1.06 3.367 1.31l-3.23 3.02c-.67.63-.67 1.63 0 2.24.33.31.77.46 1.21.46s.88-.15 1.21-.46l3.18-2.97 3.18 2.98c.68.63 1.74.63 2.4 0 .68-.63.68-1.62 0-2.24l-3.26-3.02m36.33-10.19c1.28 0 2.16-.91 2.16-2.03 0-1.01-.78-2.03-2.16-2.03s-2.17.82-2.17 2.04c0 1.12.89 2.04 2.16 2.04zm1.86 12.83V58.6h-3.74V70h3.74m1.87-.102h3.64v-6.31c0-.408 0-.612.1-.917.3-.61.89-1.32 1.87-1.32 1.28 0 1.87 1.02 1.87 2.55V70H207v-6.72c0-3.46-1.867-5.19-4.128-5.19-1.966 0-2.85 1.017-3.34 1.933v-1.425h-3.736c.2 1.12.1 11.3.1 11.3zm-82.1-6.65c-.3-.298-.6-.398-1-.696-.3-.1-1.21-.298-1.31-.398 1.41-.795 2.22-1.49 2.22-3.578 0-2.484-2.01-3.578-4.43-3.578H102v16h7.054c2.923 0 5.946-1.49 5.946-4.67-.202-1.49-.403-2.185-1.21-3.08zm-7.86-3.975V58.18c1.51 0 3.63-.298 3.63 1.49 0 2.088-1.81 1.79-3.63 1.79v-2.187zm0 8.944v-4.075c2.12 0 4.64-.398 4.64 2.087 0 2.28-2.62 1.98-4.63 1.98z"/><path fill="#5EA9DD" d="M303.677 36h-31.355c-1.16 0-2.323-1.16-2.323-2.323V2.323C270 1.163 271.16 0 272.32 0h31.355C304.837 0 306 1.16 306 2.323v31.355c-.29 1.16-.87 2.322-2.323 2.322z"/><path fill="#FFF" d="M272.323 81c-1.16 0-2.323-1.152-2.323-2.304V47.304c0-1.152 1.16-2.304 2.323-2.304h31.355c1.16 0 2.323 1.152 2.323 2.304v31.104c-.29 1.44-.87 2.592-2.32 2.592M299 10.715c-.88.285-1.76.572-2.347.857.88-.572 1.76-1.714 2.053-2.286-.88.572-2.053.857-2.64 1.143-.88-.86-2.053-1.43-3.227-1.43-2.35 0-4.7 2-4.7 4.57 0 .28 0 .85.29 1.14-3.82-.29-7.04-2-9.39-4.57-.59.57-.59 1.71-.59 2.28 0 1.71.88 2.85 2.05 3.71-.88 0-1.76-.29-2.35-.57 0 2.28 1.76 4 3.52 4.28-.59.28-.88.28-1.18.28-.29 0-.59 0-.88-.29.59 2 2.35 3.14 4.11 3.14-1.76 1.14-3.52 2-5.58 2H277c2.053 1.43 4.4 2 7.04 2 8.213 0 12.906-6.86 12.906-12.57v-1.7c.587-.57 1.467-1.43 2.054-2z"/><path d="M299 55.714c-.88.286-1.76.57-2.347.857.88-.57 1.76-1.71 2.053-2.28-.88.57-2.053.86-2.64 1.15-.88-.85-2.053-1.43-3.227-1.43-2.35 0-4.7 2-4.7 4.57 0 .29 0 .86.29 1.15-3.82-.28-7.04-2-9.39-4.57-.59.57-.59 1.72-.59 2.29 0 1.71.88 2.86 2.05 3.71-.88 0-1.76-.28-2.35-.57 0 2.29 1.76 4 3.52 4.29-.59.29-.88.29-1.18.29-.29 0-.59 0-.88-.28.59 2 2.35 3.14 4.11 3.14-1.76 1.15-3.52 2-5.58 2H277c2.053 1.43 4.4 2 7.04 2 8.213 0 12.906-6.85 12.906-12.57v-.57c.587-1.43 1.467-2.28 2.054-3.14z"/><path fill="#3D5E83" d="M348.677 36h-31.355c-1.16 0-2.323-1.16-2.323-2.323V2.323C315 1.163 316.16 0 317.32 0h31.355C349.837 0 351 1.16 351 2.323v31.355c-.29 1.16-1.16 2.322-2.323 2.322z"/><path fill="#FFF" d="M326.288 9h13.467c1.403 0 2.245 1.125 2.245 2.25v13.5c0 1.407-1.122 2.25-2.245 2.25h-13.467c-1.403 0-2.245-1.125-2.245-2.25V11.53c-.28-1.405.843-2.53 2.245-2.53zm10.663 2.25c-.56 0-.84.28-.84.843v1.968c0 .57.28.85.84.85h2.25c.56 0 .84-.28.84-.84v-2.25c0-.56-.28-.84-.84-.84h-2.24v.28zm3.09 5.625h-1.68c.28.563.28 1.125.28 1.688 0 2.812-2.52 5.624-5.61 5.624s-5.61-2.25-5.61-5.624c0-.563 0-1.125.28-1.688h-1.68v7.594c0 .56.28.84.84.84h12.63c.56 0 .84-.28.84-.85v-7.59h-.28zm-7.01-2.25c-2.24 0-3.64 1.687-3.64 3.374s1.69 3.37 3.65 3.37 3.65-1.69 3.65-3.38-1.68-3.38-3.64-3.38zM348.68 81h-31.36c-1.16 0-2.323-1.152-2.323-2.304V47.304c0-1.152 1.16-2.304 2.32-2.304h31.352c1.16 0 2.32 1.152 2.32 2.304v31.104c-.29 1.44-1.16 2.592-2.33 2.592z"/><path d="M326.288 54h13.467c1.403 0 2.245 1.125 2.245 2.25v13.5c0 1.406-1.122 2.25-2.245 2.25h-13.467c-1.403 0-2.245-1.125-2.245-2.25v-13.5c-.28-1.125.843-2.25 2.245-2.25zm10.663 1.688c-.56 0-.84.28-.84.844V58.5c0 .562.28.844.84.844h2.25c.56 0 .84-.28.84-.844v-1.97c0-.56-.28-.843-.84-.843h-2.24zm3.09 5.906h-1.68c.28.562.28 1.125.28 1.688 0 2.812-2.52 5.625-5.61 5.625s-5.61-2.25-5.61-5.625c0-.562 0-1.125.28-1.688h-1.68v7.594c0 .562.28.844.84.844h12.63c.56 0 .84-.28.84-.844v-7.594h-.28zm-7.01-1.97c-2.24 0-3.64 1.69-3.64 3.376 0 1.97 1.69 3.375 3.65 3.375s3.65-1.688 3.65-3.375c0-1.97-1.68-3.375-3.64-3.375z"/></svg>