<svg width="1600" height="896" viewBox="0 0 1600 896" fill="none" xmlns="http://www.w3.org/2000/svg">
  <g clip-path="url(#clip0)">
    <path d="M1576.9 398.659L1599 438.83L1572.58 402.152L1550 387.743L1521.66 369.84L1508.21 371.587L1500.53 351.938L1482.75 341.021L1470.74 301.287L1435.2 287.314L1396.29 288.187L1336.72 304.343H1306.38L1283.4 322.246L1278.6 331.852L1268.99 341.021V352.374L1252.18 365.474V386.433L1232.97 396.408L1252.18 421.801V445.817L1273.79 473.326V522.667L1254.1 553.232L1266.59 604.756V614.363L1281.48 642.308L1268.51 651.914L1262.27 666.324V676.366L1254.1 683.789L1273.79 700.819L1276.68 714.791L1284.84 719.158L1288.69 730.511L1281.48 750.596L1284.84 734.004L1273.79 720.904L1266.59 714.791L1268.51 704.312L1245.45 683.789L1254.1 673.31L1250.74 664.577L1256.5 651.914L1264.19 637.505L1254.1 614.363L1256.5 595.587L1245.45 549.302L1268.99 526.596L1264.19 475.509L1239.69 445.817V429.224L1220.85 408.841L1175.8 420.491L1165.23 433.154L1171.48 445.817L1148.42 475.509L1142.18 496.905L1118.16 502.144L1062.92 493.411L1048.98 502.144L975.009 493.411L959.157 502.144L921.689 500.398L858.761 511.75L850.595 527.033L866.927 551.049L923.61 566.331L925.532 609.559L937.541 625.715L921.689 636.632L932.737 625.715L921.689 609.559L915.444 568.515L865.006 560.655L815.529 595.587L798.236 620.912L771.816 636.632L764.61 673.747L714.172 721.341L709.849 758.02L693.517 732.257L664.695 723.524H697.359L716.094 692.959L742.033 673.747L744.435 655.844L758.846 629.209L789.109 598.643V587.509H673.822L664.695 576.374L642.598 568.951L615.698 576.374L601.287 587.509H587.356L572.465 600.826H541.242L530.674 629.209L516.263 642.308L510.979 652.788L500.891 657.154L498.97 670.69L506.175 680.733L473.511 716.975L482.157 739.68L475.432 748.413L473.511 761.076L468.227 743.61L451.894 739.68L470.628 725.708L460.06 720.468L468.227 707.805L494.647 676.366L482.157 655.407L464.864 645.365L430.278 642.308L414.906 624.842H392.329L372.634 642.308L327 648.858L372.634 637.942L392.329 618.292L405.779 607.376V600.826H400.976L398.574 575.501L400.976 566.331L398.574 552.359L400.976 538.386L381.761 527.906V517.427L387.526 527.906L405.779 534.456L403.378 555.852L411.063 566.331L405.779 575.501L418.749 607.376L405.779 614.799L418.749 618.292L443.728 635.322H470.628L485.52 637.942V648.858H494.647L508.097 629.209L510.979 621.349L530.674 613.053L536.918 585.981L568.142 576.374V506.074L589.758 489.918V478.565L615.698 468.522L629.148 448.873L621.462 435.774L615.698 416.998L633.952 409.575L621.462 416.998L626.746 435.774L642.598 446.253L626.746 472.016L599.366 478.565L595.042 499.088L581.592 510.441V578.557L601.287 575.501L610.414 566.331L645.48 559.782L660.852 566.331L686.792 572.881H793.141L829.94 541.006L818.891 459.789L829.94 424.858L850.595 384.25L816.009 356.741L829.94 343.641V326.175L836.184 313.076L831.861 291.68L840.027 309.583L836.184 330.542V343.641L825.136 353.684L860.202 368.53L899.592 374.207L937.06 364.6L903.915 377.7H877.015L854.438 384.25L844.35 409.575L831.861 459.789L847.713 506.511L903.915 485.552H935.139L955.794 476.382L1040.34 480.312L1056.19 469.832L1087.89 473.326L1112.39 480.312L1137.85 469.832V454.113L1163.31 427.041L1161.39 404.772L1227.49 383.638L1243.05 369.84L1244.97 352.374L1261.3 341.021V329.232L1288.33 304.343H1278.6L1265.15 275.961L1228.16 244.086L1252.18 205.661L1230.65 143.441L1208.47 146.277L1187.33 134.051L1146.02 111.782L1143.14 96.0624L1124.4 88.6394L1110.47 68.117H1094.62L1072.52 47.1579L1041.78 53.7076L1065.32 43.2281L1050.91 22.269L1053.79 0L1058.59 22.269L1068.2 37.9883H1075.89L1094.62 58.0741L1114.31 65.4971L1127.76 86.4561L1140.73 88.6394L1153.7 96.0624V105.669L1175.32 120.951L1211.35 139.29L1228.49 137.193L1228.16 136.234L1236.33 126.191L1278.6 115.275L1273.31 91.6959L1289.65 120.951L1245.45 130.994L1261.3 211.337L1236.33 244.086L1278.6 268.975L1289.65 288.187L1320.87 296.92L1380.92 279.891H1436.16L1471.72 295.651L1479.39 292.554L1534.15 243.649L1549.04 247.142L1570.66 217.887L1556.73 240.593L1581.71 246.269L1585.55 254.129L1579.3 247.142L1557.21 243.212L1549.04 253.255L1534.15 247.142L1477.72 302.218L1494.76 330.979L1511.57 342.768L1523.58 356.304L1550 381.193L1576.9 398.659Z" fill="white"/>
    <path d="M473.511 778.105L475.432 767.626L460.06 771.119L443.728 775.049L419.23 803.867L400.015 816.53L395.692 830.066L386.565 836.616L373.115 849.715L361.586 858.448L368.792 896L366.87 866.308L377.438 849.715L395.692 839.672L413.465 824.827L439.405 816.53L451.894 797.318L470.628 785.528L494.647 797.318L510.979 812.164L526.831 821.77L538.36 834.869V854.518L550.849 889.887L542.683 849.715V819.587L526.831 813.91V803.867L514.341 797.318L506.175 789.458L473.511 778.105Z" fill="white"/>
  </g>
  <defs>
    <clipPath id="clip0">
      <rect width="1600" height="896" fill="white"/>
    </clipPath>
  </defs>
</svg>
