<svg fill="none" viewBox="0 0 17 20" xmlns="http://www.w3.org/2000/svg"><path d="M10.002 15.365H4.971V20H3.303v-4.635H.513V13.93h2.79v-2.038H.513v-1.421h2.79V.094h6.781c2.096 0 3.732.533 4.908 1.6 1.185 1.056 1.777 2.497 1.777 4.32 0 1.859-.574 3.303-1.722 4.333-1.149 1.021-2.79 1.536-4.922 1.545H4.971v2.037h5.031v1.436zm-5.031-4.894h5.113c1.586 0 2.816-.383 3.691-1.149.875-.775 1.313-1.868 1.313-3.281 0-1.367-.428-2.452-1.285-3.254-.848-.802-2.02-1.221-3.514-1.258H4.971v8.942z" fill="#151616"/></svg>