<svg fill="none" viewBox="0 0 726 419" xmlns="http://www.w3.org/2000/svg"><path d="M226.7 318.29c0-17.457 4.04-20.613-10.957-35.622-4.738-4.742-5.799-9.981-6.496-7.723-.698 2.268-3.646 10.037-1.354 18.56 2.297 8.539 4.199 12.598 8.532 16.667 4.332 4.059 10.275 8.118 10.275 8.118z" stroke="#0D62B1" stroke-linecap="round" stroke-linejoin="round" stroke-miterlimit="10" stroke-width="3"/><path d="M226.84 317.49s-3.661-5.835-7.178-14.635c-3.517-8.816-4.056-12.598-5.681-15.04-1.625-2.443-3.923-10.022-3.923-10.022M214.61 288.92l1.872-5.511M218.19 301.22l5.332-8.564M214.67 292.56l-7.517-4.336M219.26 301.79l-9.071-3.012M70.781 333.57s7.106.975 8.65 1.673c1.528.698 4.46 2.022 4.46 2.022M70.07 318.71s.713 3.402.713 6.835c0 3.417.348 7.332.348 7.332" stroke="#0D62B1" stroke-linecap="round" stroke-linejoin="round" stroke-miterlimit="10" stroke-width="3"/><path d="M45.868 324.98s9.547-2.34 12.105-5.09c2.558-2.751 6.804-7.333 4.927-12.7-1.876-5.368-4.301-9.119-5.932-10.268-1.615-1.165-3.24-2.561-3.24-2.561l-.77.436s-1.656-2.966-3.035-4.526c-1.364-1.57-2.589-2.37-3.984-1.277-1.41 1.093-4.68 3.299-5.68 4.464-1.005 1.149-2.503 2.458-2.503 2.458s-1.615-.595-1.99-.19c-.373.406-6.29 4.249-7.951 9.062-1.657 4.798-2.836 9.078-1.252 12.67 1.6 3.592 5.902 6.209 10.67 7.358 4.769 1.17 8.635.164 8.635.164z" clip-rule="evenodd" fill="#FFA095" fill-rule="evenodd"/><path d="M78.515 386.99c-1.046-.769-12.413-5.105-20.93-17.744-8.5-12.623-13.315-18.155-13.736-26.242-.42-8.103.554-17.601.554-17.601" stroke="#0D62B1" stroke-linecap="round" stroke-linejoin="round" stroke-miterlimit="10" stroke-width="3"/><path d="M52.704 362.11s-.436-16.769 1.625-23.301c2.456-7.795 13.618-29.075 28.518-22.343 5.507 2.489 12.977 7.461 4.04 18.212-8.92 10.765-13.878 13.264-20.436 18.37-6.553 5.091-11.582 11.305-11.582 11.305" stroke="#0D62B1" stroke-linecap="round" stroke-linejoin="round" stroke-miterlimit="10" stroke-width="3"/><path d="M55.144 362.26s3.912-18.432 10.68-24.846c6.758-6.43 15.479-17.396 15.9-17.745.42-.349 2.415-2.268 2.415-2.268" stroke="#0D62B1" stroke-linecap="round" stroke-linejoin="round" stroke-miterlimit="10" stroke-width="3"/><path d="M57.378 333.29s-.84 1.047 1.046 5.804c1.892 4.741 2.86 6.907 2.86 6.907M58.502 348.3s1.118-.698 5.014.42c3.913 1.119 5.933 1.468 5.933 1.468M53.964 366.59c-6.106-8.451-17.904-13.937-28.343-14.809-9.373-.77-20.186 1.801-22.729 8.728-5.61 15.317 16.715 16.523 26.236 14.035 11.234-2.925 12.208-5.511 16.889-6.415 4.666-.913 7.947-1.539 7.947-1.539z" stroke="#0D62B1" stroke-linecap="round" stroke-linejoin="round" stroke-miterlimit="10" stroke-width="3"/><path d="M2.268 364.01c1.19-.206 13.674-1.396 24.693-.698 11.029.698 19.812.99 20.509 1.047.697.071 6.147.918 6.147.918M16.486 352.83s2.107 3.012 4.2 5.105c2.091 2.094 5.378 4.67 5.378 4.67" stroke="#0D62B1" stroke-linecap="round" stroke-linejoin="round" stroke-miterlimit="10" stroke-width="3"/><path d="M32.484 353.92s2.297 4.438 3.548 5.962c1.267 1.54 4.26 4.146 4.26 4.146M14.695 374.8s3.62-3.038 6.978-5.963c3.343-2.94 7.327-5.803 7.327-5.803M33.383 371.98s2.512-3.141 4.317-4.536c1.815-1.396 3.984-2.735 3.984-2.735" stroke="#0D62B1" stroke-linecap="round" stroke-linejoin="round" stroke-miterlimit="10" stroke-width="3"/><path d="M52.964 294.8c-.667.667-4.87 4.947-6.28 7.682-1.396 2.735-4.2 8.641-4.2 8.641" stroke="#F65B47" stroke-linecap="round" stroke-linejoin="round" stroke-miterlimit="10" stroke-width="3"/><path d="M44.46 324.46c0-.524.159-8.554-2.861-15.635-3.025-7.082-5.83-13.501-5.83-13.501M48.023 297.93c-.42-3.869-4.722-8.873-4.722-8.873M49.126 289.78l-3.415 2.576" stroke="#F65B47" stroke-linecap="round" stroke-linejoin="round" stroke-miterlimit="10" stroke-width="3"/><path d="M167.75 267.54c4.635-5.47 9.214-12.439 9.347-20.013.143-7.579 0-12.089-2.528-14.809-2.512-2.735-6.132-4.449-6.132-4.449s-3.62-9.616-10.639-12.829c-7.035-3.212-20.612-7.445-29.138-1.293-8.517 6.138-13.5 9.894-14.736 12.829-1.22 2.94-2.179 4.916-2.179 4.916s-.61-2.592-2.861.143c-11.818 14.327-2.399 33.195 11.121 42.227 15.93 10.647 32.24 11.535 47.745-6.722z" clip-rule="evenodd" fill="#FFA095" fill-rule="evenodd"/><path d="M162.95 362.86c0-1.354-8.793-12.726-11.218-24.117-2.441-11.377-3.384-13.675-6.091-28.716-2.718-15.024-3.384-14.224-2.313-19.504 1.093-5.28 1.221-9.878 1.221-9.878" stroke="#0D62B1" stroke-linecap="round" stroke-linejoin="round" stroke-miterlimit="10" stroke-width="3"/><path d="M147.94 320.08c.641-16.421 19.463-36.028 26.524-24.672 4.46 7.168 4.055 12.987-1.221 19.227-5.276 6.225-12.849 12.059-15.694 13.675-2.851 1.627-6.63 3.387-6.63 3.387s-.682-.539 5.681-11.653c6.353-11.099 9.886-15.707 11.234-17.468 1.354-1.76 6.63-7.168 6.63-7.168" stroke="#0D62B1" stroke-linecap="round" stroke-linejoin="round" stroke-miterlimit="10" stroke-width="3"/><path d="M161.85 310.65s-1.19-2.735-1.672-4.448c-.492-1.714-1.963-6.097-1.963-6.097M155.83 321.98c-.031-.231-1.266-1.673-2.164-4.013-.917-2.355-2.63-7.856-2.63-7.856M156.75 321.11s3.604 1.642 5.768 1.642 5.03-.872 5.03-.872M162.3 310.56s4.696-.929 5.988-.929 7.804-.072 7.804-.072M148.49 330.81c-.117-.349-1.41-8.057-6.511-13.239-5.117-5.178-12.254-12.044-17.556-12.567-5.317-.524-10.854-1.093-12.28 1.513-10.592 19.115 14.721 24.293 27.98 23.492 6.04-.38 8.367.801 8.367.801z" stroke="#0D62B1" stroke-linecap="round" stroke-linejoin="round" stroke-miterlimit="10" stroke-width="3"/><path d="M146.36 329.69c-.246-.421-3.999-3.156-9.373-6.794-5.393-3.638-9.623-4.757-13.617-8.405-3.984-3.639-10.188-9.016-10.188-9.016" stroke="#0D62B1" stroke-linecap="round" stroke-linejoin="round" stroke-miterlimit="10" stroke-width="3"/><path d="M128.41 317.5c.144-1.047.175-2.941-.246-5.034-.42-2.109-.451-5.717-.451-5.717M136.22 322.39v-3.376c0-3.331-.118-6.097-.118-6.097M137.09 324.3c-.221 0-.221.841-1.964 1.586-1.743.728-1.964.307-4.199.872-2.241.554-4.794 1.673-4.794 1.673M112.45 319.86s1.513-.57 4.374-.642c2.876-.056 5.917-.379 7.383-.451s4.609-.508 4.609-.508" stroke="#0D62B1" stroke-linecap="round" stroke-linejoin="round" stroke-miterlimit="10" stroke-width="3"/><path d="M144.56 280.64s-2.21-16.451-8.604-25.76c-6.409-9.308-16.494-17.903-17.381-18.606-.872-.713-8.762-4.567-8.762-4.567M138.41 256.82c.174-1.047 5.435-14.224 14.649-19.576 9.213-5.352 17.54-8.611 17.54-8.611" stroke="#F65B47" stroke-linecap="round" stroke-linejoin="round" stroke-miterlimit="10" stroke-width="3"/><path d="M116.46 221.97s14.751 1.395 22.816 7.199c8.065 5.788 10.757 10.196 10.757 10.196" stroke="#F65B47" stroke-linecap="round" stroke-linejoin="round" stroke-miterlimit="10" stroke-width="3"/><path d="M157 215.73s-10.869 4.828-13.5 8.071c-2.63 3.259-3.999 5.527-3.999 5.527M145.07 221.25s1.933-2.109-2.63-5.177c-4.563-3.069-6.932-4.48-6.932-4.48" stroke="#F65B47" stroke-linecap="round" stroke-linejoin="round" stroke-miterlimit="10" stroke-width="3"/><path d="M35.452 230.5s15.006 2.441 21.782 9.434c6.767 7.005 8.415 13.175 8.488 15.162.07 1.966-.39 3.024-2.561 2.341-2.177-.676-7.746-1.334-12.714-4.469-4.968-3.135-10.231-7.849-12.484-11.545-2.241-3.705-4.588-9.531-4.255-9.938.314-.407 1.744-.985 1.744-.985z" clip-rule="evenodd" fill="#FFA095" fill-rule="evenodd"/><path d="M201.66 334.86c2.353 0 4.271-1.919 4.271-4.274s-1.918-4.275-4.271-4.275a4.28 4.28 0 00-4.271 4.275 4.273 4.273 0 004.271 4.274zM172.88 151.99s11.556 9.877 13.72 19.376c2.153 9.498.364 15.635-.595 17.369-.959 1.73-1.917 2.387-3.414.683-1.498-1.714-5.917-5.162-8.548-10.427-2.614-5.265-4.681-12.028-4.681-16.364.016-4.336 1.015-10.53 1.513-10.704.477-.195 2.005.067 2.005.067zM233.27 165.55a4.28 4.28 0 004.271-4.275c0-2.355-1.918-4.274-4.271-4.274s-4.271 1.919-4.271 4.274a4.28 4.28 0 004.271 4.275z" clip-rule="evenodd" fill="#F65B47" fill-rule="evenodd"/><path d="M210.5 12.003V12c0-5.784 4.716-10.5 10.5-10.5s10.5 4.716 10.5 10.5-4.716 10.5-10.5 10.5c-5.8 0-10.513-4.717-10.5-10.497z" stroke="#FFA095" stroke-width="3"/><path d="M605.22 358.48s12.397-.056 18.514.174c6.117.231 15.146.467 21.135.929 6.004.467 11.249.118 12.992-.231s4.42-1.339 4.42-1.339M578.89 323.57c2.107.406 11.613 3.726 11.613 3.726l3.589-6.009" stroke="#0D62B1" stroke-linecap="round" stroke-linejoin="round" stroke-miterlimit="10" stroke-width="3"/><path d="M608.07 252c.133.102-3.036-2.34-4.271-1.268-1.251 1.078-6.901 18.473-6.394 24.857.508 6.399 4.871 22.485 13.751 27.75 8.881 5.265 15.218 7.082 21.73 7.261 6.511.159 24.39-3.694 31.061-13.034 6.685-9.339 11.033-15.009 9.911-19.653-1.134-4.639-3.4-5.834-3.4-5.834s-.902-10.591-7.414-16.539c-12.572-11.489-27.133-19.217-44.299-12.002-8.496 3.571-10.809 8.359-10.675 8.462z" clip-rule="evenodd" fill="#FFA095" fill-rule="evenodd"/><path d="M588.32 372.85s19.417-21.572 24.068-34.503c4.665-12.931 10.07-29.629 10.07-29.629" stroke="#0D62B1" stroke-linecap="round" stroke-linejoin="round" stroke-miterlimit="10" stroke-width="3"/><path d="M603.87 350.84s1.964-8.595-2.21-17.831c-4.158-9.237-8.706-15.492-12.874-18.489-4.158-2.981-7.02-5.208-7.02-5.208s-3.809 1.539-3.691 8.595-.349 18.068 8.793 25.236c9.142 7.169 16.597 9.965 16.597 9.965" stroke="#0D62B1" stroke-linecap="round" stroke-linejoin="round" stroke-miterlimit="10" stroke-width="3"/><path d="M581.98 311.44c.754 1.395 5.522 8.569 7.573 13.644 2.036 5.059 4.358 8.626 7.225 14.034 2.85 5.424 6.86 12.536 6.86 12.536" stroke="#0D62B1" stroke-linecap="round" stroke-linejoin="round" stroke-miterlimit="10" stroke-width="3"/><path d="M599.97 330.78l-2.948 8.816s-1.364 1.688-5.902.579c-4.548-1.118-9.49-4.264-9.49-4.264M601.31 358.36s6.235-5.018 11.48-6.296c5.23-1.278 16.715-4.844 25.447-2.679 8.737 2.156 13.792 4.711 17.181 5.937 3.374 1.222 7.573 2.458 7.573 2.458s-.594 6.168-6.291 7.697c-13.443 3.562-33.937 8.595-46.653-1.585-3.199-2.561-7.516-5.527-7.516-5.527" stroke="#0D62B1" stroke-linecap="round" stroke-linejoin="round" stroke-miterlimit="10" stroke-width="3"/><path d="M649.42 353.46s1.22.579-2.907 2.909c-4.143 2.34-7.629 3.797-7.629 3.797s6.686 3.028 6.804 3.551c.118.524 3.501 3.33 3.501 3.33M630.55 349.33s.175 2.211-3.794 4.248c-3.953 2.038-7.05 4.378-7.05 4.378s2.164 3.084 3.446 5.47c1.276 2.401 2.789 5.311 2.789 5.311" stroke="#0D62B1" stroke-linecap="round" stroke-linejoin="round" stroke-miterlimit="10" stroke-width="3"/><path d="M626.02 309.26s.989-19.971-4.374-32.83c-5.363-12.86-15.463-24.482-15.463-24.482M624.89 284.04s15.597-8.231 29.579-7.984c13.966.246 18.078.246 18.078.246M641.73 277.05s-1.364-8.99-3.62-13.731c-2.241-4.757-9.363-17.863-9.363-17.863l-4.737-4.362M637.63 260.85s2.676-1.878 11.828-2.14c9.158-.261 14.475-.467 14.475-.467M633.02 252.2c.395-.072 2.4-2.079 8.573-2.997 6.179-.903 12.675-1.555 12.675-1.555" stroke="#F65B47" stroke-linecap="round" stroke-linejoin="round" stroke-miterlimit="10" stroke-width="3"/><path d="M642.72 249.05s.118-2.314-1.512-4.51a209.952 209.952 0 00-2.718-3.649" stroke="#F65B47" stroke-linecap="round" stroke-linejoin="round" stroke-miterlimit="10" stroke-width="3"/><path d="M564.79 293.53c.308-.159 14.198-4.361 21.294-13.177 7.296-9.047 17.617-36.654 1.861-36.654-3.984 0-4.184-.667-4.184-.667s-6.178-6.122-12.849-7.317c-6.686-1.191-15.956-1.863-23.165 2.386-7.193 4.264-11.859 10.427-11.859 10.427s-5.132-1.76-6.583.205-2.79 17.729 2.44 26.021c6.727 10.674 21.145 19.356 33.045 18.776z" clip-rule="evenodd" fill="#FFA095" fill-rule="evenodd"/><path d="M542.34 364.8s12.659-22.398 16.105-34.124c3.46-11.74 5.568-39.404 5.568-39.404" stroke="#0D62B1" stroke-linecap="round" stroke-linejoin="round" stroke-miterlimit="10" stroke-width="3"/><path d="M546.67 354.45c.133-.975 2.804-6.373-2.543-15.245-5.348-8.888-8.43-12.336-13.849-12.947-5.435-.595-12.526-.8-12.526-.8s1.743 9.077 6.568 14.311c4.825 5.224 3.645 5.947 10.972 9.806 7.337 3.854 11.439 4.613 11.439 4.613" stroke="#0D62B1" stroke-linecap="round" stroke-linejoin="round" stroke-miterlimit="10" stroke-width="3"/><path d="M519.46 325.52s9.752 5.891 16.279 13.193 8.183 9.165 8.952 10.504 1.948 4.09 1.948 4.09" stroke="#0D62B1" stroke-linecap="round" stroke-linejoin="round" stroke-miterlimit="10" stroke-width="3"/><path d="M534.81 327.74s-.087 2.166-.087 5.296c0 3.125.143 4.726.143 4.726M522.74 337.79s5.015-.056 6.876-.056 4.373.087 4.373.087M541.83 335.52s-.016 4.275-.016 5.701c0 1.412-.133 4.188-.133 4.188s-2.092.641-4.532 1.206c-2.425.569-4 1.164-4 1.164" stroke="#0D62B1" stroke-linecap="round" stroke-linejoin="round" stroke-miterlimit="10" stroke-width="3"/><path d="M573.41 289.72c-.333-1.442-.333-16.318-9.362-24.246-9.024-7.944-14.68-13.003-19.75-14.24-5.056-1.236-9.419-2.601-9.419-2.601" stroke="#F65B47" stroke-linecap="round" stroke-linejoin="round" stroke-miterlimit="10" stroke-width="3"/><path d="M559.35 261.35s1.569-6.938 12.951-12.013c11.367-5.059 12.208-5.849 12.208-5.849M567.29 250.71c-.451-.785-8.634-5.66-11.818-8.189-3.184-2.53-8.634-5.265-8.634-5.265M570.8 235.7c-7.414 3.243-9.157 4.552-9.68 6.168-.523 1.627-1.046 3.315-1.046 3.315" stroke="#F65B47" stroke-linecap="round" stroke-linejoin="round" stroke-miterlimit="10" stroke-width="3"/><path d="M721.9 219.91s-4.681 7.272-10.047 9.44c-5.368 2.162-9.144 1.844-10.255 1.51-1.108-.335-1.587-.782-.731-1.769.861-.988 2.457-3.735 5.294-5.708 2.837-1.964 6.608-3.791 9.153-4.248 2.547-.449 6.28-.563 6.431-.313.16.237.155 1.088.155 1.088zM546.27 203.55a4.28 4.28 0 004.271-4.275c0-2.355-1.918-4.274-4.271-4.274s-4.271 1.919-4.271 4.274a4.273 4.273 0 004.271 4.275zM511.27 93.549c2.353 0 4.271-1.92 4.271-4.274S513.623 85 511.27 85s-4.271 1.92-4.271 4.275a4.273 4.273 0 004.271 4.274z" clip-rule="evenodd" fill="#FFA095" fill-rule="evenodd"/><path d="M563.5 144v-.003c0-5.784 4.716-10.5 10.5-10.5s10.5 4.716 10.5 10.5-4.716 10.5-10.5 10.5c-5.8 0-10.513-4.717-10.5-10.497z" stroke="#FFA095" stroke-width="3"/><path d="M715.81 330.74s-11.489-7.946-20.427-7.631c-8.925.306-13.957 3.35-15.262 4.614-1.314 1.256-1.676 2.254.191 3.18 1.876.939 5.983 4.039 11.253 5.135 5.288 1.097 11.786 1.33 15.627.313 3.853-1.026 9.113-3.375 9.163-3.849.028-.478-.545-1.762-.545-1.762zM635.48 178.43s-15.861 9.906-20.221 21.063c-4.349 11.155-3.291 18.955-2.434 21.23s1.886 3.247 4.03 1.455c2.127-1.805 8.129-5.2 12.286-11.134 4.144-5.916 7.877-13.769 8.662-19.047.786-5.262.691-12.987.136-13.294-.56-.311-2.459-.273-2.459-.273z" clip-rule="evenodd" fill="#F65B47" fill-rule="evenodd"/><path d="M724.12 397.42c-17.296-2.368-19.874-6.799-36.779 6.023-5.341 4.05-10.675 4.391-8.533 5.388 2.152.999 9.45 4.974 18.205 3.859 8.771-1.117 13.051-2.451 17.67-6.191 4.609-3.742 9.437-9.079 9.437-9.079z" stroke="#0D62B1" stroke-linecap="round" stroke-linejoin="round" stroke-miterlimit="10" stroke-width="3"/><path d="M723.35 397.18s-6.277 2.835-15.473 5.126c-9.211 2.289-13.031 2.309-15.672 3.588-2.64 1.279-10.461 2.526-10.461 2.526M693.39 405.42l-5.206-2.602M706.06 403.55l-7.761-6.445M697 405.86l-5.315 6.859M706.77 402.56l-4.214 8.577" stroke="#0D62B1" stroke-linecap="round" stroke-linejoin="round" stroke-miterlimit="10" stroke-width="3"/></svg>