<svg fill="none" viewBox="0 0 1600 896" xmlns="http://www.w3.org/2000/svg"><g clip-path="url(#a)"><path d="M1576.9 398.66l22.1 40.171-26.42-36.678-22.58-14.409-28.34-17.903-13.45 1.747-7.68-19.649-17.78-10.917-12.01-39.734-35.54-13.973-38.91.873-59.57 16.156h-30.34l-22.98 17.903-4.8 9.606-9.61 9.169v11.353l-16.81 13.1v20.959l-19.21 9.975 19.21 25.393v24.016l21.62 27.509v49.341l-19.7 30.565 12.49 51.524v9.607l14.89 27.945-12.97 9.606-6.24 14.41v10.042l-8.17 7.423 19.7 17.03 2.88 13.972 8.16 4.367 3.85 11.353-7.21 20.085 3.36-16.592-11.04-13.1-7.21-6.113 1.92-10.479-23.06-20.523 8.65-10.479-3.36-8.733 5.76-12.663 7.69-14.409-10.09-23.142 2.4-18.776-11.05-46.285 23.54-22.706-4.8-51.087-24.5-29.692v-16.593l-18.84-20.383-11.42-12.365 13.19-1.6.74-7.57 4.13-3.668 15.56-13.798 1.92-17.466 16.34-11.353v-11.789l27.02-24.889h-9.73l-13.45-28.382-36.99-31.875 24.02-38.425-21.53-62.22-22.18 2.836-21.14-12.226-41.31-22.269-2.88-15.72-18.74-7.423-13.93-20.522h-15.85l-22.1-20.959-30.74 6.55 23.54-10.48-14.41-20.96 2.88-22.268 4.8 22.269 9.61 15.719h7.69l18.73 20.086 19.69 7.423 13.46 20.959 12.96 2.183 12.97 7.423v9.607l21.62 15.282 36.03 18.339 17.14-2.097-.33-.96 8.17-10.042 42.27-10.916-5.29-23.58 16.34 29.256-44.2 10.043 15.86 80.343-24.98 32.749 42.27 24.889 11.05 19.212 31.22 8.733 60.05-17.03h55.24l35.56 15.76 7.67-3.096 54.76-48.905 14.89 3.493 21.62-29.255-13.93 22.706 24.98 5.676 3.84 7.86-6.24-6.987-22.1-3.93-8.17 10.043-14.89-6.113-56.42 55.076 17.03 28.76 16.81 11.79 12.01 13.536 26.42 24.889 26.9 17.466z" fill="#fff"/></g><defs><clipPath id="a"><path fill="#fff" d="M0 0h1600v896H0z"/></clipPath></defs></svg>