<svg fill="none" viewBox="0 0 1600 896" xmlns="http://www.w3.org/2000/svg"><g clip-path="url(#b)"><g clip-path="url(#a)"><path d="M1599 438.83l-22.1-40.171-26.9-17.466-26.42-24.889-12.01-13.536-16.81-11.789-17.04-28.761 56.43-55.076 14.89 6.113 8.17-10.043 22.09 3.93 6.25 6.987-3.84-7.86-24.98-5.676 13.93-22.706-21.62 29.255-14.89-3.493-54.76 48.905-7.67 3.097-35.56-15.76h-55.24l-60.05 17.029-31.22-8.733-11.05-19.212-42.27-24.889 24.97-32.749-15.85-80.343 44.2-10.043-16.34-29.255 5.29 23.579-42.27 10.916-8.17 10.043.33.959-17.14 2.097-36.03-18.339-21.62-15.282v-9.607l-12.97-7.423-12.97-2.183-13.45-20.959-19.69-7.423-18.73-20.086h-7.69l-9.61-15.719L1053.79 0l-2.88 22.27 14.41 20.958-23.54 10.48 30.74-6.55 22.1 20.96h15.85l13.93 20.521 18.74 7.423 2.88 15.72 41.31 22.27 21.14 12.225 22.18-2.836 21.53 62.22-24.02 38.425 36.99 31.875 13.45 28.382h9.73l-27.03 24.89v11.788l-16.33 11.353-1.92 17.466-15.56 13.798-66.1 21.134 1.92 22.27-25.46 27.071v15.72l-25.46 10.48-24.5-6.987-31.7-3.494-15.85 10.48-84.546-3.93-20.655 9.17h-31.224l-56.202 20.96-15.852-46.723 12.489-50.214 10.088-25.325 22.577-6.55h26.9l33.145-13.1-37.468 9.607-39.39-5.677-35.066-14.846 11.048-10.043v-13.099l3.843-20.959-8.166-17.903 4.323 21.396-6.244 13.1v17.465l-13.931 13.1 34.586 27.51-20.655 40.607-11.049 34.931 11.049 81.217-36.799 31.875h-106.35l-25.94-6.55-15.372-6.549-35.066 6.55-9.127 9.17-19.695 3.055v-68.116l13.45-11.353 4.324-20.523 27.38-6.549 15.852-25.763-15.852-10.479-5.284-18.776 12.49-7.423-18.254 7.423 5.764 18.776 7.686 13.1-13.45 19.648-25.94 10.043v11.353l-21.616 16.156v70.3l-31.224 9.607-6.244 27.072-19.695 8.296-2.882 7.86-13.45 19.65h-9.127v-10.917l-14.892-2.62h-26.9l-24.979-17.03-12.97-3.493 12.97-7.423-12.97-31.875 5.284-9.17-7.685-10.479 2.401-21.396-18.253-6.55-5.765-10.479v10.48l19.215 10.48-2.402 13.972 2.402 13.972-2.402 9.17 2.402 25.325h4.803v6.55l-13.45 10.916-19.695 19.65-45.634 10.916 45.634-6.55 19.695-17.466h22.577l15.372 17.466 34.586 3.057 17.293 10.042 12.49 20.96-26.42 31.438-8.167 12.663 10.568 5.24-18.734 13.972 16.333 3.93 5.284 17.466 1.921-12.663 6.725-8.733-8.646-22.705 32.664-36.242-7.205-10.043 1.921-13.536 10.088-4.366 5.284-10.48 14.411-13.099 10.568-28.383h31.223l14.892-13.317h13.93l14.411-11.135 26.9-7.423 22.097 7.423 9.127 11.135h115.29v11.134l-30.263 30.566-14.411 26.635-2.402 17.903-25.939 19.212-18.735 30.565h-32.664l28.822 8.733 16.332 25.763 4.323-36.679 50.438-47.594 7.206-37.115 26.42-15.72 17.293-25.325 49.477-34.932 50.438 7.86 6.245 41.044 11.048 16.156-11.048 10.917 15.852-10.917-12.009-16.156-1.922-43.228-56.683-15.282-16.332-24.016 8.166-15.283 62.928-11.352 37.468 1.746 15.852-8.733 73.971 8.733 13.94-8.733 55.24 8.733 24.02-5.239 6.24-21.396 23.06-29.692-6.25-12.663 10.57-12.663 45.05-11.65 18.84 20.383v16.593l24.5 29.692 4.8 51.087-23.54 22.706 11.05 46.285-2.4 18.776 10.09 23.142-7.69 14.41-.65 1.42-28.52-1.332-11.97 5.332h-18.09l-32.57 12.187-9.18-27.167 7.23-29.198 5.85-14.726 13.08-3.809h15.59l19.2-7.617-21.71 5.586-22.82-3.3-20.32-8.633 6.4-5.84v-7.617l2.23-12.187-4.73-10.41 2.5 12.441-3.62 7.617v10.156l-8.07 7.617 20.04 15.996-11.97 23.612-6.4 20.312 6.4 47.225-21.32 18.535h-61.62l-15.03-3.808-8.9-3.809-20.32 3.81-5.29 5.33-11.41 1.778v-39.609l7.79-6.6 2.51-11.934 15.86-3.809 9.19-14.98-9.19-6.093-3.06-10.918 7.24-4.316-10.58 4.316 3.34 10.918 4.46 7.617-7.8 11.425-15.03 5.84v6.601l-12.52 9.395v40.877l-18.093 5.586-3.618 15.742-11.411 4.824-1.67 4.57-7.793 11.425h-5.288v-6.347l-8.628-1.523h-15.586l-14.473-9.902-7.515-2.032 7.515-4.316-7.515-18.535 3.062-5.33-4.454-6.095 1.392-12.44-10.576-3.809-3.34-6.094v6.094l11.133 6.093-1.392 8.125 1.392 8.125-1.392 5.331 1.392 14.727h2.783v3.808l-7.793 6.348-11.411 11.425-26.441 6.347 26.441-3.808 11.411-10.156h13.081l8.906 10.156 20.04 1.777 10.019 5.84 7.237 12.187-15.308 18.281-4.731 7.363 6.123 3.046-10.855 8.125 9.463 2.285 3.062 10.156 1.113-7.363 3.896-5.078-5.009-13.202 18.926-21.074-4.175-5.84 1.113-7.87 5.845-2.54 3.061-6.093 8.35-7.617 6.123-16.503h18.088l8.63-7.744h8.07l8.35-6.475 15.59-4.316 12.8 4.316 5.29 6.475h66.8v6.474l-17.54 17.773-8.35 15.488-1.39 10.41-15.03 11.171-10.85 17.773h-18.93l16.7 5.078 9.46 14.98 2.51-21.327 29.22-27.675 4.18-21.582 15.31-9.14 10.01-14.726 28.67-20.312 29.23 4.57 3.61 23.867 6.41 9.394-6.41 6.347 9.19-6.347-6.96-9.394-1.11-25.136-32.84-8.887-9.47-13.964 4.73-8.887 36.46-6.6 21.71 1.014 9.19-5.078 12.8 1.517-.52 1.155 3.36 8.733-8.65 10.48 23.06 20.522-1.92 10.48 7.2 6.112 11.05 13.1-3.36 16.592 7.21-20.085-3.85-11.353-8.16-4.367-2.89-13.972-19.69-17.03 8.17-7.423v-10.042l.65-1.52 18.4 2.18 8.07-5.079 32.01 5.078 13.91-3.046 3.62-12.44 13.36-17.266-3.62-7.364 6.13-7.363 26.1-6.774 10.91 11.852v9.65l14.2 17.264 2.78 29.706-13.64 13.202 6.41 26.914-1.4 10.917 5.85 13.457-4.45 8.38-3.34 7.362 1.94 5.078-5.01 6.093 13.36 11.934-1.11 6.093 4.18 3.555 6.4 7.617-1.95 9.648 4.17-11.68-2.22-6.6-4.73-2.54-1.67-8.125-11.42-9.902 4.74-4.316v-5.84l3.61-8.378 7.52-5.586-8.63-16.25v-5.585l-7.24-29.96 11.42-17.773v-28.69l-12.53-15.996v-13.965l-11.13-14.765 11.13-5.8v-12.188l9.74-7.617v-6.6l5.57-5.333 2.78-5.586 13.31-10.41h17.59l34.51-9.394 22.54-.508 20.6 8.125 6.96 23.105 10.29 6.347 4.46 11.426 7.79-1.016 16.42 10.41 13.08 8.38 15.31 21.326-12.8-23.359-15.59-10.155-15.31-14.473-6.95-7.87-9.75-6.856-9.87-16.723 32.7-32.025 8.62 3.554 4.74-5.839 12.8 2.285 3.62 4.062-2.23-4.57-14.47-3.3 8.07-13.204-12.53 17.012-8.62-2.032-31.73 28.437-4.44 1.801-20.61-9.164h-32.01l-34.79 9.902-18.09-5.078-6.4-11.17-24.49-14.474 14.47-19.042-9.19-46.717 25.61-5.84-9.46-17.01 3.06 13.71-24.49 6.347-4.74 5.84.2.557-9.94 1.22-20.87-10.664-12.53-8.887v-5.585l-7.51-4.317-7.52-1.269-7.79-12.187-11.41-4.316-10.85-11.68h-4.46l-5.56-9.14-2.79-12.949-1.67 12.95 8.35 12.186-13.64 6.094 17.82-3.809 12.8 12.187h9.19l8.07 11.933 10.85 4.317 1.67 9.14 23.94 12.95 12.24 7.108 12.86-1.649 12.47 36.18-13.92 22.342 21.44 18.535 7.79 16.503h5.63l-15.65 14.473v6.855l-9.46 6.601-1.12 10.156-9.01 8.023-38.3 12.29 1.11 12.948-14.75 15.742v9.14l-14.75 6.094-14.2-4.063-18.37-2.03-9.18 6.093-8.65-.404.85-1.97 12.97-9.607-14.89-27.945v-9.607l-12.49-51.524 19.69-30.565v-49.34l-21.61-27.51v-24.016l-19.21-25.393 19.21-9.975v-20.959l16.81-13.1v-11.353l9.61-9.169 4.8-9.606 22.98-17.903h30.34l59.57-16.156 38.91-.873 35.54 13.973 12.01 39.734 17.78 10.917 7.68 19.65 13.45-1.748 28.34 17.903 22.58 14.41 26.42 36.677zM475.4 767.63l-1.921 10.479 32.664 11.353 8.166 7.86 12.49 6.549v10.043l15.852 5.677v30.128l8.166 40.172-12.49-35.369v-19.649l-11.528-13.099-15.852-9.606-16.332-14.846-24.019-11.79-18.734 11.79-12.489 19.212-25.94 8.297-17.773 14.845-18.254 10.043-10.568 16.593 1.922 29.692-7.206-37.552 11.529-8.733 13.45-13.099 9.127-6.55 4.323-13.536 19.215-12.663 24.498-28.818 16.332-3.93 15.372-3.493zm556.91-628.81l7.66 13.988-9.16-12.772-7.83-5.017-9.82-6.234-4.67.608-2.66-6.842-6.163-3.801-4.163-13.837-12.324-4.865-13.49.304-20.651 5.626h-10.52l-7.966 6.234-1.666 3.345-3.331 3.193v3.953l-5.828 4.561v7.298l-6.659 3.474 6.659 8.842v8.363l7.494 9.579v17.181l-6.828 10.643 4.33 17.942v3.345l5.163 9.731-4.497 3.345-2.165 5.017v3.497l-2.831 2.585 6.828 5.93.999 4.866 2.831 1.52 1.333 3.953-2.498 6.994 1.165-5.777-3.83-4.562-2.498-2.128.666-3.65-7.994-7.146 2.998-3.649-1.166-3.041 1.998-4.409 2.665-5.018-3.497-8.058.832-6.538-3.83-16.117 8.16-7.907-1.665-17.789-8.494-10.339v-5.778l-6.53-7.098-15.619 4.057-3.664 4.409 2.165 4.41-7.994 10.339-2.165 7.45-8.327 1.825-19.153-3.041-4.829 3.041-25.647-3.041-5.496 3.041-12.991-.608-21.816 3.953-2.832 5.321 5.663 8.363 19.652 5.322.666 15.052 4.163 5.626-5.496 3.801 3.831-3.801-3.831-5.626-2.165-14.292-17.486-2.737-17.154 12.164-5.995 8.819-9.16 5.473-2.498 12.924-17.487 16.573-1.499 12.772-5.662-8.971-9.993-3.04h11.325l6.495-10.644 8.993-6.69.833-6.234 4.996-9.275 10.492-10.643v-3.877h-39.97l-3.164-3.877-7.661-2.585-9.326 2.585-4.996 3.877h-4.83l-5.163 4.637h-10.825l-3.664 9.883-4.996 4.562-1.832 3.649-3.497 1.52-.666 4.714 2.498 3.497-11.325 12.62 2.998 7.906-2.332 3.041-.666 4.41-1.832-6.082-5.662-1.369 6.495-4.865-3.664-1.825 2.831-4.409 9.16-10.948-4.33-7.298-5.996-3.497-11.991-1.064-5.329-6.082h-7.827l-6.829 6.082-15.821 2.281 15.821-3.802 6.829-6.842 4.663-3.801v-2.281h-1.666l-.832-8.818.832-3.193-.832-4.866.832-4.865-6.661-3.649v-3.65l1.998 3.65 6.329 2.28-.833 7.451 2.665 3.649-1.832 3.193 4.496 11.099-4.496 2.585 4.496 1.216 8.66 5.93h9.327l5.162.912v3.802h3.165l4.663-6.843.999-2.736 6.828-2.889 2.165-9.427 10.825-3.345v-24.48l7.495-5.626v-3.953l8.993-3.497 4.663-6.842-2.665-4.561-1.998-6.538 6.329-2.585-4.331 2.585 1.832 6.538 5.496 3.649-5.496 8.971-9.492 2.28-1.499 7.146-4.663 3.954v23.719l6.828-1.064 3.164-3.193 12.158-2.281 5.329 2.281 8.993 2.28h36.871l12.758-11.099-3.83-28.281 3.83-12.163 7.161-14.141-11.99-9.579 4.829-4.561v-6.082l2.165-4.561-1.499-7.451 2.832 6.234-1.333 7.298v4.562l-3.83 3.497 12.157 5.169 13.657 1.977 12.99-3.345-11.492 4.561h-9.326l-7.827 2.281-3.498 8.819-4.33 17.485 5.496 16.269 19.485-7.298h10.826l7.161-3.193 29.311 1.368 5.496-3.649 10.992 1.217 8.493 2.432 8.827-3.649v-5.473l8.826-9.427-.666-7.755 22.918-7.359 5.394-4.804.666-6.082 5.663-3.953v-4.106l9.368-8.666h-3.373l-4.663-9.883-12.824-11.1 8.328-13.38-7.463-21.665-7.693.987-7.328-4.257-14.322-7.754-.999-5.474-6.495-2.585-4.83-7.146h-5.496l-7.661-7.298-10.658 2.28 8.16-3.649-4.996-7.298.999-7.754 1.666 7.754 3.33 5.474h2.665l6.495 6.994 6.828 2.585 4.663 7.298 4.497.76 4.497 2.585v3.345l7.494 5.322 12.491 6.385 5.943-.73-.115-.334 2.832-3.497 14.655-3.801-1.832-8.21 5.663 10.186-15.322 3.497 5.496 27.977-8.66 11.404 14.655 8.667 3.831 6.69 10.825 3.041 20.817-5.93h19.153l12.33 5.488 2.658-1.079 18.989-17.029 5.16 1.217 7.49-10.187-4.83 7.906 8.66 1.977 1.34 2.736-2.17-2.432-7.66-1.369-2.83 3.497-5.16-2.128-19.566 19.178 5.906 10.014 5.83 4.106 4.16 4.713 9.16 8.667 9.33 6.082zM868.1 233.545l.999-25.088-3.497 23.567-4.164 2.585-2.831 8.363-6.662 5.93-2.664 4.561-5.663 12.012 1.666 13.684v-11.252l6.661-12.315 1.166-4.562 8.327-8.058 1.999-7.451 4.663-1.976zm-217.67 33.754l-.666 3.649 11.325 3.954 2.831 2.736 4.33 2.281v3.497l5.496 1.977v10.491l2.831 13.988-4.33-12.315v-6.843l-3.997-4.561-5.496-3.345-5.662-5.17-8.327-4.105-6.495 4.105-4.33 6.69-8.994 2.889-6.162 5.17-6.328 3.497-3.664 5.778.666 10.339-2.498-13.076 3.997-3.041 4.663-4.561 3.164-2.281 1.499-4.714 6.662-4.409 8.493-10.035 5.663-1.368 5.329-1.217zm-210.46 469.51l-7.661-13.988-9.326-6.082-9.16-8.667-4.163-4.713-5.829-4.106-5.907-10.014 19.563-19.179 5.163 2.129 2.831-3.497 7.661 1.368 2.165 2.433-1.332-2.737-8.661-1.976 4.83-7.907-7.494 10.187-5.163-1.216-18.986 17.029-2.658 1.079-12.33-5.488H364.36l-20.817 5.93-10.825-3.041-3.831-6.69-14.655-8.667 8.66-11.403-5.496-27.977 15.322-3.497-5.663-10.187 1.832 8.21-14.655 3.802-2.831 3.497.115.333-5.944.731-12.491-6.386-7.494-5.322v-3.345l-4.497-2.585-4.497-.76-4.663-7.298-6.828-2.585-6.495-6.994h-2.665l-3.33-5.474-1.666-7.754-.999 7.754 4.996 7.299-8.16 3.649 10.658-2.281 7.661 7.298h5.496l4.83 7.146 6.495 2.585.999 5.474 14.323 7.754 7.327 4.258 7.693-.988 7.463 21.666-8.327 13.38 12.823 11.1 4.663 9.883h3.373l-9.368 8.666v4.106l-5.663 3.953-.666 6.082-5.394 4.804-22.918 7.359.666 7.755-8.826 9.427v5.473l-8.827 3.649-8.493-2.432-10.992-1.217-5.496 3.649-29.311-1.368-7.161 3.193h-10.826l-19.485 7.298-5.496-16.269 4.33-17.485 3.498-8.819 7.827-2.28h9.326l11.492-4.562-12.99 3.345-13.657-1.976-12.157-5.17 3.83-3.497v-4.562l1.333-7.298-2.832-6.234 1.499 7.451-2.165 4.561v6.082l-4.829 4.561 11.99 9.579-7.161 14.141-3.83 12.163 3.83 28.281-12.758 11.099h-36.871l-8.993-2.28-5.329-2.281-12.158 2.281-3.164 3.193-6.828 1.064v-23.719l4.663-3.954 1.499-7.146 9.492-2.28 5.496-8.971-5.496-3.649-1.832-6.538 4.331-2.585-6.329 2.585 1.998 6.538 2.665 4.561-4.663 6.842-8.993 3.497v3.953l-7.495 5.626v24.48l-10.825 3.345-2.165 9.427-6.828 2.889-.999 2.736-4.663 6.843h-3.164v-3.802l-5.163-.912H39.44l-8.66-5.93-4.497-1.216 4.496-2.585-4.496-11.099 1.832-3.193-2.665-3.649.833-7.451-6.329-2.28-1.998-3.65v3.65l6.661 3.649-.832 4.865.832 4.866-.832 3.193.832 8.818h1.666v2.281L21.62 799.3l-6.828 6.842-15.821 3.802 15.82-2.281 6.829-6.082h7.827l5.33 6.082 11.99 1.064 5.996 3.497 4.33 7.299-9.16 10.947-2.83 4.409 3.663 1.825-6.495 4.865 5.662 1.369 1.832 6.082.666-4.41 2.332-3.041-2.998-7.906 11.325-12.62-2.498-3.497.666-4.714 3.498-1.52 1.832-3.649 4.996-4.562 3.664-9.883h10.825l5.162-4.637h4.83l4.996-3.877 9.326-2.585 7.661 2.585 3.164 3.877h39.97v3.877l-10.492 10.643-4.996 9.275-.833 6.234-8.993 6.69-6.495 10.644h-11.325l9.993 3.04 5.662 8.971 1.5-12.772 17.486-16.573 2.498-12.924 9.16-5.473 5.995-8.819 17.154-12.164 17.486 2.737 2.165 14.292 3.831 5.626-3.83 3.801 5.495-3.801-4.163-5.626-.666-15.052-19.652-5.322-5.663-8.362 2.832-5.322 21.816-3.953 12.991.608 5.496-3.041 25.647 3.041 4.83-3.041 19.152 3.041 8.327-1.825 2.165-7.45 7.994-10.339-2.165-4.41 3.664-4.409 15.62-4.057 6.53 7.098v5.778l8.493 10.339 1.665 17.789-8.16 7.907 3.83 16.117-.832 6.538 3.497 8.058-2.665 5.018-1.998 4.409 1.166 3.041-2.998 3.649 7.994 7.146-.666 3.65 2.498 2.128 3.83 4.562-1.165 5.777 2.498-6.994-1.333-3.953-2.83-1.52-1-4.866-6.828-5.93 2.831-2.584v-3.498l2.165-5.017 4.497-3.345-5.163-9.731v-3.345l-4.33-17.942 6.828-10.643v-17.181l-7.494-9.579v-8.363l-6.659-8.842 6.66-3.474v-7.298l5.827-4.561v-3.953l3.331-3.193 1.666-3.345 7.966-6.234h10.52l20.651-5.626 13.49-.304 12.324 4.865 4.163 13.837 6.162 3.801 2.665 6.842 4.663-.608 9.826 6.234 7.827 5.017 9.16 12.772zM269.1 792.458l-.999 25.088-4.663 1.977-1.999 7.45-8.327 8.058-1.166 4.562-6.661 12.315v11.252l-1.666-13.684 5.663-12.012 2.664-4.561 6.662-5.93 2.831-8.363 4.164-2.585 3.497-23.567zM49.77 854.949l.666-3.649-5.33 1.217-5.662 1.368-8.493 10.035-6.662 4.41-1.499 4.713-3.164 2.281-4.663 4.561-3.997 3.041 2.498 13.076-.666-10.339 3.664-5.778 6.328-3.497 6.162-5.17 8.994-2.888 4.33-6.691 6.495-4.105 8.327 4.105 5.662 5.17 5.496 3.345 3.997 4.562v6.842l4.33 12.315-2.831-13.988v-10.491l-5.496-1.977v-3.497l-4.33-2.281-2.831-2.736-11.325-3.954zm1263-89.959l1.67-41.893-5.84 39.354-6.96 4.317-4.73 13.964-11.14 9.902-4.45 7.617-9.46 20.058 2.78 22.851v-18.789l11.13-20.565 1.95-7.617 13.92-13.457 3.34-12.441 7.79-3.301zM949 821.356l-1.113 6.093 18.926 6.602 4.731 4.57 7.236 3.808v5.84l9.185 3.301v17.519l4.732 23.358-7.237-20.565v-11.426l-6.68-7.617-9.184-5.586-9.463-8.632-13.916-6.855-10.855 6.855-7.236 11.171-15.03 4.825-10.298 8.632-10.576 5.84-6.123 9.648 1.113 17.265-4.175-21.835 6.68-5.078 7.793-7.617 5.288-3.809 2.505-7.871 11.133-7.363 14.195-16.757 9.463-2.285 8.906-2.031z" clip-rule="evenodd" fill="#fff" fill-rule="evenodd"/></g></g><defs><clipPath id="b"><path fill="#fff" d="M0 0h1600v896H0z"/></clipPath><clipPath id="a"><path fill="#fff" d="M0 0h1600v896H0z"/></clipPath></defs></svg>