<svg fill="none" viewBox="0 0 1600 896" xmlns="http://www.w3.org/2000/svg"><g clip-path="url(#a)" fill="#fff"><path d="M1576.9 398.66l22.1 40.171-26.42-36.678-22.58-14.409-28.34-17.903-13.45 1.747-7.68-19.649-17.78-10.917-12.01-39.734-35.54-13.973-38.91.873-59.57 16.156h-30.34l-22.98 17.903-4.8 9.606-9.61 9.169v11.353l-16.81 13.1v20.959l-19.21 9.975 19.21 25.393v24.016l21.61 27.509v49.341l-19.69 30.565 12.49 51.524v9.607l14.89 27.945-12.97 9.606-6.24 14.41v10.042l-8.17 7.423 19.69 17.03 2.89 13.972 8.16 4.367 3.85 11.353-7.21 20.085 3.36-16.592-11.05-13.1-7.2-6.113 1.92-10.479-23.06-20.523 8.65-10.479-3.36-8.733 5.76-12.663 7.69-14.409-10.09-23.142 2.4-18.776-11.05-46.285 23.54-22.706-4.8-51.087-24.5-29.692v-16.593l-18.84-20.383-45.05 11.65-10.57 12.663 6.25 12.663-23.06 29.692-6.24 21.396-24.02 5.239-55.24-8.733-13.94 8.733-73.971-8.733-15.852 8.733-37.468-1.746-62.928 11.352-8.166 15.283 16.332 24.016 56.683 15.282 1.922 43.228 12.009 16.156-15.852 10.917 11.048-10.917-11.048-16.156-6.245-41.044-50.438-7.86-49.477 34.932-17.293 25.325-26.42 15.72-7.206 37.115-50.438 47.594-4.323 36.679-16.332-25.763-28.822-8.733h32.664l18.735-30.565 25.939-19.212 2.402-17.903 14.411-26.635 30.263-30.566V587.51h-115.29l-9.127-11.135-22.097-7.423-26.9 7.423-14.411 11.135h-13.931l-14.891 13.317h-31.223l-10.568 28.383-14.411 13.099-5.284 10.48-10.088 4.366-1.921 13.536 7.205 10.043-32.664 36.242 8.646 22.705-6.725 8.733-1.921 12.663-5.284-17.466-16.333-3.93 18.734-13.972-10.568-5.24 8.167-12.663 26.42-31.439-12.49-20.959-17.293-10.042-34.586-3.057-15.372-17.466h-22.577l-19.695 17.466-45.634 6.55 45.634-10.916 19.695-19.65 13.45-10.916v-6.55h-4.803l-2.402-25.325 2.402-9.17-2.402-13.972 2.402-13.973-19.215-10.48v-10.479l5.765 10.479 18.253 6.55-2.401 21.396 7.685 10.479-5.284 9.17 12.97 31.875-12.97 7.423 12.97 3.493 24.979 17.03h26.9l14.892 2.62v10.916h9.127l13.45-19.649 2.882-7.86 19.695-8.296 6.244-27.072 31.224-9.607v-70.3l21.616-16.156v-11.353l25.94-10.043 13.45-19.649-7.686-13.099-5.764-18.776 18.254-7.423-12.49 7.423 5.284 18.776 15.852 10.479-15.852 25.763-27.38 6.549-4.324 20.523-13.45 11.353v68.116l19.695-3.056 9.127-9.17 35.066-6.549 15.372 6.549 25.94 6.55h106.35l36.799-31.875-11.049-81.217 11.049-34.931 20.655-40.608-34.586-27.509 13.931-13.1v-17.466l6.244-13.099-4.323-21.396 8.166 17.903-3.843 20.959v13.099l-11.048 10.043 35.066 14.846 39.39 5.677 37.468-9.607-33.145 13.1h-26.9l-22.577 6.55-10.088 25.325-12.489 50.214 15.852 46.722 56.202-20.959h31.224l20.655-9.17 84.546 3.93 15.85-10.48 31.7 3.494 24.5 6.986 25.46-10.48v-15.719l25.46-27.072-1.92-22.269 66.1-21.134 15.56-13.798 1.92-17.466 16.33-11.353v-11.789l27.03-24.889h-9.73l-13.45-28.382-36.99-31.875 24.02-38.425-21.53-62.22-22.18 2.836-21.14-12.226-41.31-22.269-2.88-15.72-18.74-7.423-13.93-20.522h-15.85l-22.1-20.959-30.74 6.55 23.54-10.48-14.41-20.96 2.88-22.268 4.8 22.269 9.61 15.719h7.69l18.73 20.086 19.69 7.423 13.45 20.959 12.97 2.183 12.97 7.423v9.607l21.62 15.282 36.03 18.339 17.14-2.097-.33-.96 8.17-10.042 42.27-10.916-5.29-23.58 16.34 29.256-44.2 10.043 15.85 80.343-24.97 32.749 42.27 24.889 11.05 19.212 31.22 8.733 60.05-17.03h55.24l35.56 15.76 7.67-3.096 54.76-48.905 14.89 3.493 21.62-29.255-13.93 22.706 24.98 5.676 3.84 7.86-6.25-6.987-22.09-3.93-8.17 10.043-14.89-6.113-56.43 55.076 17.04 28.76 16.81 11.79 12.01 13.536 26.42 24.889 26.9 17.466zM473.51 778.1l1.921-10.479-15.372 3.493-16.332 3.93-24.498 28.818-19.215 12.663-4.323 13.536-9.127 6.55-13.45 13.099-11.529 8.733 7.206 37.552-1.922-29.692 10.568-16.593 18.254-10.043 17.773-14.845 25.94-8.297 12.489-19.212 18.734-11.79 24.019 11.79 16.332 14.846 15.852 9.606 11.529 13.099v19.649l12.489 35.369-8.166-40.172v-30.128l-15.852-5.677v-10.043l-12.49-6.549-8.166-7.86L473.51 778.1z"/></g><defs><clipPath id="a"><path fill="#fff" d="M0 0h1600v896H0z"/></clipPath></defs></svg>