<svg fill="none" xmlns="http://www.w3.org/2000/svg">
  <g clip-path="url(#clip0)">
    <g clip-path="url(#clip1)">
      <path fill-rule="evenodd" clip-rule="evenodd" d="M-1 227.251L10.3958 206.448L24.269 197.404L37.8943 184.515L44.0876 177.505L52.7584 171.4L61.5447 156.506L32.4442 127.984L24.7645 131.15L20.5529 125.949L9.15717 127.984L5.93658 131.602L7.91846 127.532L20.8007 124.593L13.6164 112.834L24.7645 127.984L32.4442 126.175L60.6859 151.501L64.64 153.105L82.9819 144.943H111.471L142.438 153.762L158.541 149.24L164.239 139.29L186.039 126.402L173.157 109.442L181.332 67.8363L158.541 62.6355L166.964 47.4854L164.239 59.6959L186.039 65.3489L190.251 70.5497L190.08 71.0462L198.922 72.1326L217.502 62.6355L228.65 54.7212V49.7466L235.338 45.9025L242.027 44.7719L248.964 33.9181L259.121 30.0741L268.783 19.6725H272.746L277.701 11.5322L280.178 0L281.665 11.5322L274.233 22.386L286.372 27.8129L270.517 24.4211L259.121 35.2749H250.946L243.761 45.9025L234.1 49.7466L232.613 57.8869L211.308 69.4191L200.408 75.7505L188.965 74.2817L177.864 106.503L190.251 126.402L171.175 142.908L164.239 157.606H159.222L173.157 170.495V176.6L181.58 182.48L182.571 191.524L190.595 198.67L224.686 209.614L223.695 221.146L236.825 235.166V243.306L249.955 248.733L262.589 245.115L278.94 243.306L287.115 248.733L330.716 246.698L341.369 251.446H357.471L386.456 262.3L394.631 238.105L388.19 212.101L382.988 198.986L371.344 195.595H357.471L340.378 188.811L359.701 193.786L380.015 190.846L398.1 183.158L392.402 177.957V171.173L390.42 160.32L394.631 151.049L392.402 162.129L395.622 168.912V177.957L402.807 184.741L384.97 198.986L395.622 220.016L401.32 238.105L395.622 280.164L414.6 296.671H469.447L482.825 293.279L490.752 289.887L508.837 293.279L513.544 298.027L523.701 299.61V264.335L516.764 258.456L514.535 247.828L500.414 244.437L492.239 231.096L500.414 225.669L503.139 215.945L496.698 212.101L506.112 215.945L503.139 225.669L499.175 232.452L506.112 242.628L519.49 247.828V253.708L530.638 262.074V298.48L546.74 303.454L549.961 317.474L560.118 321.77L561.604 325.84L568.541 336.016H573.248V330.363L580.928 329.006H594.801L607.683 320.187L614.372 318.378L607.683 314.534L611.958 303.984L610.991 298.924L613.702 296.861L611.647 293.279L615.61 287.852L614.372 276.772L623.786 273.38L626.758 267.953V273.38L616.849 278.807L618.088 286.043L616.849 293.279L617.012 293.903L619.651 291.322L622.815 289.041L624.314 284.327L630.976 279.918L639.469 269.883L645.132 268.515L650.461 267.298L649.795 270.947L661.12 274.901L663.951 277.637L668.281 279.918V283.415L673.777 285.392V295.883L676.608 309.871L672.278 297.556V290.713L668.281 286.152L662.785 282.807L657.123 277.637L648.796 273.532L642.301 277.637L637.971 284.327L628.977 287.216L622.815 292.386L617.397 295.38L618.088 298.027L616.849 311.142H614.372V314.534L621.308 320.187L631.465 330.363L655 336.016L631.465 332.624L621.308 323.579H609.665L601.737 332.624L583.9 334.207L574.982 339.407L568.541 350.261L582.166 366.542L586.378 373.099L580.928 375.813L590.589 383.049L582.166 385.084L579.441 394.129L578.45 387.571L574.982 383.049L579.441 371.29L562.595 352.522L566.311 347.322L565.32 340.312L560.118 338.051L557.393 332.624L549.961 325.84L544.511 311.142H528.408L520.728 304.246H513.544L506.112 298.48L492.239 294.635L480.843 298.48L476.136 304.246H416.68V310.012L432.287 325.84L439.719 339.634L440.958 348.904L454.335 358.854L463.997 374.682H480.843L465.979 379.205L457.556 392.546L455.326 373.552L429.314 348.904L425.598 329.684L411.973 321.544L403.054 308.429L377.538 290.339L351.526 294.409L348.305 315.665L342.607 324.031L348.305 329.684L340.13 324.031L346.323 315.665L347.314 293.279L376.547 285.365L384.97 272.928L380.758 265.014L348.305 259.134L328.982 260.039L320.807 255.517L282.656 260.039L275.471 255.517L246.982 260.039L234.595 257.326L231.375 246.246L219.483 230.869L222.704 224.312L217.254 217.754L194.019 211.721L184.305 222.277V230.869L171.671 246.246L169.193 272.702L181.332 284.46L175.634 308.429L176.873 318.152L171.671 330.136L175.634 337.598L178.607 344.156L176.873 348.678L181.332 354.105L169.441 364.733L170.432 370.16L166.716 373.326L161.018 380.109L162.752 388.702L159.036 378.3L161.018 372.421L165.23 370.16L166.716 362.924L176.873 354.105L172.662 350.261V345.06L169.441 337.598L162.752 332.624L170.432 318.152V313.177L176.873 286.495L166.716 270.667V245.115L177.864 230.869V218.433L187.769 205.283L177.864 200.117V189.263L169.193 182.48V176.6L164.239 171.852L161.761 166.877L149.911 157.606H134.263L103.544 149.24L83.4774 148.788L65.1451 156.023L58.9517 176.6L49.7856 182.253L45.8218 192.429L38.8853 191.524L24.269 200.795L12.6254 208.257L-1 227.251ZM613.034 301.327L612.823 301.661L612.833 301.823L613.034 301.327ZM253.175 310.012L254.662 347.322L261.598 350.261L264.571 361.341L276.958 373.326L278.692 380.109L288.601 398.425V415.158L291.079 394.807L282.656 376.943L278.692 370.16L268.783 361.341L264.571 348.904L258.378 345.06L253.175 310.012ZM579.441 402.947L578.45 397.52L586.378 399.329L594.801 401.365L607.435 416.288L617.344 422.846L619.574 429.856L619.666 429.922L615.698 416.998L633.952 409.575L621.462 416.998L626.701 435.615L627.111 436.015L642.598 446.253L634.244 459.831L633.447 464L633.654 460.789L626.746 472.016L599.366 478.565L595.042 499.088L581.592 510.441V578.557L601.287 575.501L610.414 566.331L645.48 559.782L660.852 566.331L686.792 572.881H793.141L829.94 541.006L818.891 459.789L829.94 424.858L850.595 384.25L816.009 356.741L829.94 343.641V326.175L836.184 313.076L831.861 291.68L840.027 309.583L836.184 330.542V343.641L825.136 353.684L860.202 368.53L899.592 374.207L937.06 364.6L903.915 377.7H877.015L854.438 384.25L844.35 409.575L831.861 459.789L847.713 506.511L903.915 485.552H935.139L955.795 476.382L1040.34 480.312L1056.19 469.832L1087.89 473.326L1112.39 480.312L1137.85 469.832V454.113L1163.31 427.041L1161.39 404.772L1227.49 383.638L1243.05 369.84L1244.97 352.374L1261.31 341.021V329.232L1288.33 304.343H1278.6L1265.15 275.961L1228.16 244.086L1252.18 205.661L1230.65 143.441L1208.47 146.277L1187.33 134.051L1146.02 111.782L1143.14 96.0624L1124.4 88.6394L1110.47 68.117H1094.62L1072.52 47.1579L1041.78 53.7076L1065.32 43.2281L1050.91 22.269L1053.79 0L1058.59 22.269L1068.2 37.9883H1075.89L1094.62 58.0741L1114.31 65.4971L1127.76 86.4561L1140.73 88.6394L1153.7 96.0624V105.669L1175.32 120.951L1211.35 139.29L1228.49 137.193L1228.16 136.234L1236.33 126.191L1278.6 115.275L1273.31 91.6959L1289.65 120.951L1245.45 130.994L1261.31 211.337L1236.33 244.086L1278.6 268.975L1289.65 288.187L1320.87 296.92L1380.92 279.891H1436.16L1471.72 295.651L1479.39 292.554L1534.15 243.649L1549.04 247.142L1570.66 217.887L1556.73 240.593L1581.71 246.269L1585.55 254.129L1579.3 247.142L1557.21 243.212L1549.04 253.255L1534.15 247.142L1477.72 302.218L1494.76 330.979L1511.57 342.768L1523.58 356.304L1550 381.193L1576.9 398.659L1599 438.83L1572.58 402.152L1550 387.743L1521.66 369.84L1508.21 371.587L1500.53 351.938L1482.75 341.021L1470.74 301.287L1435.2 287.314L1396.29 288.187L1336.72 304.343H1306.38L1283.4 322.246L1278.6 331.852L1268.99 341.021V352.374L1252.18 365.474V386.433L1232.97 396.408L1252.18 421.801V445.817L1273.79 473.326V522.667L1254.1 553.232L1266.59 604.756V614.363L1281.48 642.308L1268.51 651.914L1267.66 653.885L1276.31 654.289L1285.49 648.195L1303.86 650.226L1318.06 654.289L1332.81 648.195V639.055L1347.56 623.313L1346.45 610.364L1384.75 598.075L1393.76 590.052L1394.88 579.896L1404.34 573.295V566.44L1419.99 551.967H1414.36L1406.57 535.464L1385.13 516.929L1399.05 494.586L1386.58 458.407L1373.72 460.056L1361.48 452.947L1337.54 439.998L1335.87 430.858L1325.02 426.541L1316.95 414.608H1307.76L1294.96 402.421L1277.15 406.23L1290.78 400.136L1282.43 387.949L1284.1 375L1286.89 387.949L1292.45 397.089H1296.91L1307.76 408.769L1319.17 413.085L1326.96 425.272L1334.48 426.541L1341.99 430.858V436.443L1354.52 445.33L1375.39 455.994L1385.33 454.774L1385.13 454.216L1389.87 448.377L1414.36 442.029L1411.3 428.319L1420.76 445.33L1395.15 451.17L1404.34 497.887L1389.87 516.929L1414.36 531.402L1420.76 542.573L1438.85 547.651L1473.64 537.749H1505.65L1526.26 546.913L1530.7 545.112L1562.43 516.675L1571.05 518.707L1583.58 501.695L1575.51 514.898L1589.98 518.199L1592.21 522.769L1588.59 518.707L1575.79 516.422L1571.05 522.261L1562.43 518.707L1529.73 550.732L1539.6 567.455L1549.35 574.31L1556.3 582.181L1571.61 596.654L1587.2 606.809L1600 630.168L1584.69 608.841L1571.61 600.462L1555.19 590.052L1547.4 591.068L1542.94 579.642L1532.65 573.295L1525.69 550.19L1505.09 542.065L1482.55 542.573L1448.04 551.967H1430.45L1417.14 562.377L1414.36 567.963L1408.79 573.295V579.896L1399.05 587.513V599.7L1387.92 605.501L1399.05 620.266V634.231L1411.58 650.226V678.917L1400.16 696.69L1407.4 726.65V732.235L1416.03 748.485L1408.51 754.071L1404.9 762.449V768.289L1400.16 772.605L1411.58 782.507L1413.25 790.632L1417.98 793.171L1420.2 799.772L1416.03 811.452L1417.98 801.804L1411.58 794.187L1407.4 790.632L1408.51 784.539L1395.15 772.605L1400.16 766.512L1398.22 761.434L1401.56 754.071L1406.01 745.692L1400.16 732.235L1401.56 721.318L1395.15 694.404L1408.79 681.202L1406.01 651.496L1391.81 634.231V624.582L1380.9 612.73L1354.8 619.504L1348.67 626.867L1352.29 634.231L1338.93 651.496L1335.31 663.937L1321.4 666.983L1289.39 661.905L1281.32 666.983L1262.92 664.804L1262.27 666.324V676.366L1254.1 683.789L1273.79 700.819L1276.68 714.791L1284.84 719.158L1288.69 730.511L1281.48 750.596L1284.84 734.004L1273.79 720.904L1266.59 714.791L1268.51 704.312L1245.45 683.789L1254.1 673.31L1250.74 664.577L1251.26 663.422L1238.46 661.905L1229.27 666.983L1207.56 665.968L1171.1 672.569L1166.37 681.456L1175.84 695.42L1208.68 704.307L1209.79 729.443L1216.75 738.837L1207.56 745.184L1213.97 738.837L1207.56 729.443L1203.95 705.576L1174.72 701.006L1146.05 721.318L1136.04 736.044L1120.73 745.184L1116.55 766.766L1087.33 794.441L1084.82 815.768L1075.36 800.788L1058.66 795.71H1077.59L1088.44 777.937L1103.47 766.766L1104.86 756.356L1113.21 740.868L1130.75 723.095V716.621H1063.95L1058.66 710.146L1045.86 705.83L1030.27 710.146L1021.92 716.621H1013.85L1005.22 724.365H987.132L981.009 740.868L972.659 748.485L969.598 754.578L963.753 757.117L962.64 764.988L966.815 770.828L947.889 791.902L952.898 805.104L949.002 810.182L947.889 817.545L944.827 807.389L935.364 805.104L946.219 796.979L940.096 793.933L944.827 786.57L960.135 768.289L952.898 756.102L942.879 750.262L922.84 748.485L913.933 738.329H900.852L889.441 748.485L863 752.293L889.441 745.946L900.852 734.521L908.645 728.173V724.365H905.862L904.47 709.638L905.862 704.307L904.47 696.182L905.862 688.057L894.729 681.964V675.87L898.069 681.964L908.645 685.772L907.253 698.213L911.707 704.307L908.645 709.638L916.16 728.173L908.645 732.489L916.16 734.521L930.633 744.423H946.219L954.847 745.946V752.293H960.135L967.928 740.868L969.598 736.298L981.009 731.474L984.627 715.732L1002.72 710.146V669.269L1015.24 659.874V653.273L1030.27 647.433L1038.07 636.008L1033.61 628.391L1030.27 617.473L1040.85 613.157L1033.61 617.473L1036.67 628.391L1045.86 634.484L1036.67 649.464L1020.81 653.273L1018.3 665.206L1010.51 671.807V711.416L1021.92 709.638L1027.21 704.307L1047.53 700.498L1056.43 704.307L1071.46 708.115H1133.08L1154.4 689.58L1148 642.355L1154.4 622.043L1166.37 598.431L1146.33 582.435L1154.4 574.818V564.662L1158.02 557.045L1155.52 544.604L1160.25 555.014L1158.02 567.201V574.818L1151.62 580.658L1171.94 589.29L1194.76 592.591L1216.47 587.005L1197.27 594.622H1181.68L1168.6 598.431L1162.75 613.157L1155.52 642.355L1164.7 669.522L1197.27 657.335H1215.36L1227.33 652.003L1255.85 653.334L1256.5 651.914L1264.19 637.505L1254.1 614.363L1256.5 595.587L1245.45 549.302L1268.99 526.596L1264.19 475.509L1239.69 445.817V429.224L1220.85 408.841L1175.8 420.491L1165.23 433.154L1171.48 445.817L1148.42 475.509L1142.18 496.905L1118.16 502.144L1062.92 493.411L1048.98 502.144L975.009 493.411L959.157 502.144L921.689 500.398L858.761 511.75L850.595 527.033L866.927 551.049L923.61 566.331L925.532 609.559L937.541 625.715L921.689 636.632L932.737 625.715L921.689 609.559L915.444 568.515L865.006 560.655L815.529 595.587L798.236 620.912L771.816 636.632L764.61 673.747L714.172 721.341L709.849 758.02L693.517 732.257L664.695 723.524H697.359L716.094 692.959L742.033 673.747L744.435 655.844L758.846 629.209L789.109 598.643V587.509H673.822L664.695 576.374L642.598 568.951L615.698 576.374L601.287 587.509H587.357L572.465 600.826H541.242L530.674 629.209L516.263 642.308L510.979 652.788L500.891 657.154L498.97 670.69L506.175 680.733L473.511 716.975L482.157 739.68L475.432 748.413L473.511 761.076L468.227 743.61L451.894 739.68L470.628 725.708L460.06 720.468L468.227 707.805L494.647 676.366L482.157 655.407L464.864 645.365L430.278 642.308L414.906 624.842H392.329L372.634 642.308L327 648.858L372.634 637.942L392.329 618.292L405.78 607.376V600.826H400.976L398.574 575.501L400.976 566.331L398.574 552.359L400.976 538.386L381.761 527.906V517.427L387.526 527.906L405.78 534.456L403.378 555.852L411.064 566.331L405.78 575.501L418.749 607.376L405.78 614.799L418.749 618.292L443.728 635.322H470.628L485.52 637.942V648.858H494.647L508.097 629.209L510.979 621.349L530.674 613.053L536.918 585.981L568.142 576.374V506.074L589.758 489.918V478.565L615.698 468.522L629.148 448.873L621.549 435.921L619.574 434.83L610.408 427.142L597.03 422.846L590.589 412.897L580.928 406.791L568.541 412.897L560.118 420.585L551.943 425.559L545.997 432.343V442.518L539.556 460.834L543.767 440.031V424.429L551.943 421.489V416.288L558.384 412.897L562.595 408.827L579.441 402.947ZM473.511 778.105L475.432 767.626L460.06 771.119L443.728 775.049L419.23 803.867L400.015 816.53L395.692 830.066L386.565 836.616L373.115 849.715L361.586 858.448L368.792 896L366.87 866.308L377.438 849.715L395.692 839.672L413.465 824.827L439.405 816.53L451.894 797.318L470.628 785.528L494.647 797.318L510.979 812.164L526.831 821.77L538.36 834.869V854.518L550.849 889.887L542.683 849.715V819.587L526.831 813.91V803.867L514.341 797.318L506.175 789.458L473.511 778.105ZM1032.34 138.819L1040 152.807L1030.84 140.035L1023.01 135.018L1013.19 128.784L1008.52 129.392L1005.86 122.55L999.697 118.749L995.534 104.912L983.21 100.047L969.72 100.351L949.069 105.977H938.549L930.583 112.211L928.917 115.556L925.587 118.749V122.702L919.758 127.263V134.561L913.099 138.035L919.758 146.877V155.24L927.252 164.819V182L920.424 192.643L924.754 210.585V213.93L929.917 223.661L925.42 227.006L923.255 232.023V235.52L920.424 238.105L927.252 244.035L928.251 248.901L931.082 250.421L932.415 254.374L929.917 261.368L931.082 255.591L927.252 251.029L924.754 248.901L925.42 245.251L917.426 238.105L920.424 234.456L919.258 231.415L921.256 227.006L923.921 221.988L920.424 213.93L921.256 207.392L917.426 191.275L925.587 183.368L923.921 165.579L915.427 155.24V149.462L908.897 142.364L893.278 146.421L889.614 150.83L891.779 155.24L883.785 165.579L881.62 173.029L873.293 174.854L854.141 171.813L849.311 174.854L823.664 171.813L818.168 174.854L805.178 174.246L783.361 178.199L780.53 183.52L786.192 191.883L805.844 197.205L806.51 212.257L810.673 217.883L805.178 221.684L809.008 217.883L805.178 212.257L803.013 197.965L785.526 195.228L768.372 207.392L762.377 216.211L753.217 221.684L750.719 234.608L733.232 251.181L731.733 263.953L726.071 254.982L716.078 251.942H727.403L733.898 241.298L742.891 234.608L743.724 228.374L748.72 219.099L759.212 208.456V204.579H719.242L716.078 200.702L708.417 198.117L699.091 200.702L694.095 204.579H689.265L684.102 209.216H673.277L669.613 219.099L664.617 223.661L662.785 227.31L659.288 228.83L658.622 233.544L661.12 237.041L649.795 249.661L652.793 257.567L650.461 260.608L649.795 265.018L647.963 258.936L642.301 257.567L648.796 252.702L645.132 250.877L647.963 246.468L657.123 235.52L652.793 228.222L646.797 224.725L634.806 223.661L629.477 217.579H621.65L614.821 223.661L599 225.942L614.821 222.14L621.65 215.298L626.313 211.497V209.216H624.647L623.815 200.398L624.647 197.205L623.815 192.339L624.647 187.474L617.986 183.825V180.175L619.984 183.825L626.313 186.105L625.48 193.556L628.145 197.205L626.313 200.398L630.809 211.497L626.313 214.082L630.809 215.298L639.469 221.228H648.796L653.958 222.14V225.942H657.123L661.786 219.099L662.785 216.363L669.613 213.474L671.778 204.047L682.604 200.702V176.222L690.098 170.596V166.643L699.091 163.146L703.754 156.304L701.09 151.743L699.091 145.205L705.42 142.62L701.09 145.205L702.922 151.743L708.417 155.392L702.922 164.363L693.429 166.643L691.93 173.789L687.267 177.743V201.462L694.095 200.398L697.259 197.205L709.417 194.924L714.746 197.205L723.739 199.485H760.61L773.368 188.386L769.538 160.105L773.368 147.942L780.53 133.801L768.539 124.222L773.368 119.661V113.579L775.533 109.018L774.034 101.567L776.866 107.801L775.533 115.099V119.661L771.703 123.158L783.86 128.327L797.517 130.304L810.507 126.959L799.016 131.52H789.689L781.862 133.801L778.365 142.62L774.034 160.105L779.53 176.374L799.016 169.076H809.841L817.002 165.883L846.313 167.251L851.809 163.602L862.801 164.819L871.294 167.251L880.121 163.602V158.129L888.948 148.702L888.281 140.947L911.199 133.588L916.593 128.784L917.26 122.702L922.922 118.749V114.643L932.29 105.977H928.917L924.254 96.0936L911.431 84.9942L919.758 71.614L912.295 49.9481L904.602 50.9357L897.275 46.6784L882.952 38.924L881.953 33.4503L875.458 30.8655L870.628 23.7193H865.132L857.471 16.4211L846.813 18.7018L854.973 15.0526L849.977 7.75439L850.976 0L852.642 7.75439L855.972 13.2281H858.637L865.132 20.2222L871.96 22.807L876.624 30.1053L881.12 30.8655L885.617 33.4503V36.7953L893.111 42.117L905.602 48.5029L911.546 47.7724L911.431 47.4386L914.262 43.9415L928.917 40.1404L927.085 31.9298L932.748 42.117L917.426 45.614L922.922 73.5906L914.262 84.9942L928.917 93.6608L932.748 100.351L943.573 103.392L964.391 97.462H983.543L995.873 102.95L998.531 101.871L1017.52 84.8421L1022.68 86.0585L1030.17 75.8714L1025.34 83.7778L1034 85.7544L1035.34 88.4912L1033.17 86.0585L1025.51 84.6901L1022.68 88.1871L1017.52 86.0585L997.954 105.237L1003.86 115.251L1009.69 119.357L1013.85 124.07L1023.01 132.737L1032.34 138.819ZM868.13 233.544L869.129 208.456L865.632 232.023L861.468 234.608L858.637 242.971L851.975 248.901L849.311 253.462L843.648 265.474L845.314 279.158V267.906L851.975 255.591L853.141 251.029L861.468 242.971L863.467 235.52L868.13 233.544ZM440 736.807L432.339 722.819L423.013 716.737L413.853 708.07L409.69 703.357L403.861 699.251L397.954 689.237L417.517 670.058L422.68 672.187L425.511 668.69L433.172 670.058L435.337 672.491L434.005 669.754L425.344 667.778L430.174 659.871L422.68 670.058L417.517 668.842L398.531 685.871L395.873 686.95L383.543 681.462H364.391L343.573 687.392L332.748 684.351L328.917 677.661L314.262 668.994L322.922 657.591L317.426 629.614L332.748 626.117L327.085 615.93L328.917 624.14L314.262 627.942L311.431 631.439L311.546 631.772L305.602 632.503L293.111 626.117L285.617 620.795V617.45L281.12 614.865L276.624 614.105L271.96 606.807L265.132 604.222L258.637 597.228H255.972L252.642 591.754L250.976 584L249.977 591.754L254.973 599.053L246.813 602.702L257.471 600.421L265.132 607.719H270.628L275.458 614.865L281.953 617.45L282.952 622.924L297.275 630.678L304.602 634.936L312.295 633.948L319.758 655.614L311.431 668.994L324.254 680.094L328.917 689.977H332.29L322.922 698.643V702.749L317.259 706.702L316.593 712.784L311.199 717.588L288.281 724.947L288.948 732.702L280.121 742.129V747.602L271.294 751.251L262.801 748.819L251.809 747.602L246.313 751.251L217.002 749.883L209.841 753.076H199.016L179.53 760.374L174.034 744.105L178.364 726.62L181.862 717.801L189.689 715.521H199.016L210.507 710.959L197.517 714.304L183.86 712.328L171.703 707.158L175.533 703.661V699.099L176.866 691.801L174.034 685.567L175.533 693.018L173.368 697.579V703.661L168.539 708.222L180.53 717.801L173.368 731.942L169.538 744.105L173.368 772.386L160.61 783.485H123.739L114.746 781.205L109.417 778.924L97.2591 781.205L94.0948 784.398L87.2667 785.462V761.743L91.9298 757.789L93.4287 750.643L102.921 748.363L108.417 739.392L102.921 735.743L101.09 729.205L105.42 726.62L99.0911 729.205L101.09 735.743L103.754 740.304L99.0911 747.146L90.0979 750.643V754.596L82.6035 760.222V784.702L71.7784 788.047L69.6133 797.474L62.7852 800.363L61.7859 803.099L57.1228 809.942H53.9585V806.14L48.7957 805.228H39.4695L30.8093 799.298L26.3127 798.082L30.8093 795.497L26.3127 784.398L28.1447 781.205L25.48 777.556L26.3127 770.105L19.9842 767.825L17.9857 764.175V767.825L24.6473 771.474L23.8146 776.339L24.6473 781.205L23.8146 784.398L24.6473 793.216H26.3127V795.497L21.6496 799.298L14.8214 806.14L-0.999947 809.942L14.8214 807.661L21.6496 801.579H29.477L34.8063 807.661L46.7973 808.725L52.7927 812.222L57.1228 819.521L47.963 830.468L45.1319 834.877L48.7957 836.702L42.3007 841.567L47.963 842.936L49.795 849.018L50.4612 844.608L52.7927 841.567L49.795 833.661L61.1198 821.041L58.6217 817.544L59.2878 812.83L62.7852 811.31L64.6171 807.661L69.6133 803.099L73.2772 793.216H84.1024L89.2652 788.579H94.0948L99.0911 784.702L108.417 782.117L116.078 784.702L119.242 788.579H159.212V792.456L148.72 803.099L143.724 812.374L142.891 818.608L133.898 825.298L127.403 835.942H116.078L126.071 838.982L131.733 847.953L133.232 835.181L150.719 818.608L153.217 805.684L162.377 800.211L168.372 791.392L185.526 779.228L203.012 781.965L205.178 796.257L209.008 801.883L205.178 805.684L210.673 801.883L206.51 796.257L205.844 781.205L186.192 775.883L180.53 767.521L183.361 762.199L205.178 758.246L218.168 758.854L223.664 755.813L249.311 758.854L254.141 755.813L273.293 758.854L281.62 757.029L283.785 749.579L291.779 739.24L289.614 734.83L293.278 730.421L308.897 726.364L315.428 733.462V739.24L323.921 749.579L325.587 767.368L317.426 775.275L321.256 791.392L320.424 797.93L323.921 805.988L321.256 811.006L319.258 815.415L320.424 818.456L317.426 822.105L325.42 829.251L324.754 832.901L327.252 835.029L331.082 839.591L329.917 845.368L332.415 838.374L331.082 834.421L328.251 832.901L327.252 828.035L320.424 822.105L323.255 819.521V816.023L325.42 811.006L329.917 807.661L324.754 797.93V794.585L320.424 776.643L327.252 766V748.819L319.758 739.24V730.877L313.099 722.035L319.758 718.561V711.263L325.587 706.702V702.749L328.917 699.556L330.583 696.211L338.549 689.977H349.069L369.72 684.351L383.21 684.047L395.534 688.912L399.697 702.749L405.859 706.55L408.524 713.392L413.187 712.784L423.013 719.018L430.84 724.035L440 736.807ZM269.129 792.456L268.13 817.544L263.467 819.521L261.468 826.971L253.141 835.029L251.975 839.591L245.314 851.906V863.158L243.648 849.474L249.311 837.462L251.975 832.901L258.637 826.971L261.468 818.608L265.632 816.023L269.129 792.456ZM49.795 854.947L50.4612 851.298L45.1319 852.515L39.4695 853.883L30.9759 863.918L24.3142 868.328L22.8154 873.041L19.6511 875.322L14.988 879.883L10.991 882.924L13.4891 896L12.8229 885.661L16.4868 879.883L22.8154 876.386L28.9774 871.216L37.9706 868.328L42.3007 861.637L48.7957 857.532L57.1228 861.637L62.7852 866.807L68.281 870.152L72.278 874.714V881.556L76.608 893.871L73.7769 879.883V869.392L68.281 867.415V863.918L63.951 861.637L61.1198 858.901L49.795 854.947ZM1312.77 764.988L1314.44 723.095L1308.6 762.449L1301.64 766.766L1296.91 780.73L1285.77 790.632L1281.32 798.249L1271.86 818.307L1274.64 841.158V822.369L1285.77 801.804L1287.72 794.187L1301.64 780.73L1304.98 768.289L1312.77 764.988ZM949.002 821.354L947.889 827.447L966.815 834.049L971.546 838.619L978.783 842.427V848.267L987.967 851.568V869.087L992.699 892.445L985.462 871.88V860.454L978.783 852.837L969.598 847.251L960.135 838.619L946.219 831.764L935.364 838.619L928.128 849.79L913.098 854.615L902.8 863.247L892.224 869.087L886.101 878.735L887.214 896L883.039 874.165L889.719 869.087L897.512 861.47L902.8 857.661L905.305 849.79L916.438 842.427L930.633 825.67L940.096 823.385L949.002 821.354Z" fill="white"/>
    </g>
    <g clip-path="url(#clip2)">
      <path fill-rule="evenodd" clip-rule="evenodd" d="M1329.11 353.351L1366.5 238.5L1241.63 177.32L1227.4 193.599L1215.69 189.785H1208.46L1194.78 207.675L1197.8 270.82L1183.09 285.752L1176.36 359.88L1181.53 375.742L1227.5 348.5L1296 366L1329.11 353.351ZM1225.3 184.654L1238.14 175.612L1217.5 165.5V0L1227 74L1251.5 138L1328 165.5L1366.5 127.5V95L1379.5 153.5L1347 182.5L1411 227L1423.7 341.292L1492 391H1599.5V683.5L1506 667.5L1400.92 633.259L1371.09 724.8L1388 896H1238.06L1256.02 859.963L1212.18 785.989L1222.84 744.283L1215.13 724.126L1145.21 701.36L1100.76 792.077H999.999L1045.05 786.293L1084.02 771.377L1100.76 724.8L1077.63 701.36H1057.84L1093.46 693.445L1111.11 713.232L1138.21 674.266L1207.79 666.535L1238.06 624.95V617.663L1046.25 635.072L989.5 691L749.5 679.5L681.5 731.5V759L696 803.5L614.085 875.076L619.385 878.609L617.899 897.593L616.453 887.368L607.564 880.774L593 893.5L603.883 878.042L602.648 877.126L579.804 889.184L574.945 910.41L575.25 934.114L567.883 882.045L611.512 852.446L594.635 817.976L583.656 815.47L562.883 824.024L521.453 806.78L483.6 835.242L481.389 892.196L445.811 916.324L468.923 939.048L438.815 922.448L418.208 925.364L441.417 909.083L433.666 842.306L457.264 795.981L409.106 760.097L377.927 755.202L351.664 770.31L370.879 749.62L356.785 721.448L365.071 708.563L339 680.802L375.411 704.532L372.83 719.178L374.054 727.83L397.763 741.164L472.759 726.862L493.104 741.932L582.885 737.436L636.305 711.265L647.722 707.607L662 665L593 609L681.5 644.5L776.5 615.5L910.744 482.451L831.476 369.443H803.349L761.764 399.707L754.032 469.293L715.067 496.386L734.854 514.043L726.939 549.66V529.873L703.499 506.737L656.922 523.48L642.006 562.446L636.222 607.5V506.737L726.939 462.291L704.172 392.365L684.016 384.664L642.31 395.319L568.336 351.482L488.882 395.319L469.399 502.779L395.425 539.005L433.173 588.321L380.508 548.747H340.629L389.032 524.089L392.25 395.319L449.456 313.764L367.722 232.758L309.882 215.102L256 236.715L298.01 202.62L278.832 145.389L298.01 123.167L256 63.5L318.711 118.296L309.882 145.389V162.132L351.284 193.792L497.406 186.79L531.96 220.842L703.499 236.411L811.872 201.098L813.097 200.889L811.5 137L732 96.5H797.5L884 31.5L822 112.5L943.5 172L975.5 348.5L1106 420.5L1118.87 412.872V403.029L1105.79 385.058L1075.72 381.717L1064.02 364.879L1056.39 373.43L1040.99 370.009H1049.54L1059.54 359.88L1052.31 339.753L1035.47 333.307L1016 330.807H1059.54L1078.75 370.009L1108.97 360.171L1112.29 351.461L1107.69 333.438L1126.63 301.471L1107.69 267.137L1061.25 258.717L1045.6 226.75L1024.29 243.063L1041.39 220.304V203.071L1052.04 223.988L1107.69 225.379L1142.93 250.099L1177.94 214.779L1185.57 189.785L1176.23 166.5L1190.96 184.654L1215.69 176.366L1225.3 184.654ZM661.325 796.458L644.208 798.88L624.932 817.559L625.809 846.901L661.325 796.458ZM610.813 868.2L607.869 870.932L608.564 871.395L610.813 868.2Z" fill="white"/>
    </g>
  </g>
  <defs>
    <clipPath id="clip0">
      <rect width="1600" height="896" fill="white"/>
    </clipPath>
    <clipPath id="clip1">
      <rect width="1600" height="896" fill="white"/>
    </clipPath>
    <clipPath id="clip2">
      <rect width="1600" height="896" fill="white"/>
    </clipPath>
  </defs>
</svg>
